<svg width="1440" height="1024" viewBox="0 0 1440 1024" fill="none" xmlns="http://www.w3.org/2000/svg">
<g clip-path="url(#clip0)">
<rect width="1440" height="1024" fill="white"/>
<path d="M904.34 152.121C900.789 152.121 898.887 154.399 895.514 158.905C894.296 161.297 893.352 163.816 892.699 166.415C892.902 166.616 893.079 166.741 893.308 166.941C892.445 169.219 892.268 169.87 891.101 172.824C891.634 170.646 892.141 168.518 892.699 166.415C888.184 162.335 886.536 164.262 881.539 164.738C877.71 161.509 874.311 162.835 869.797 163.286C868.808 155.4 864.724 160.257 862.442 158.88C856.38 156.777 858.739 160.733 855.112 162.535C842.887 148.315 832.134 155.225 822.775 167.692C808.902 169.47 797.869 178.307 795.586 189.697C794.817 193.553 794.569 197.493 794.851 201.414C801.724 205.169 812.807 203.592 819.833 202.891C811.768 205.77 817.829 208.899 816.891 211.678C806.416 211.678 800.126 207.697 801.902 216.509L795.637 224.095C786.811 220.164 758.608 220.74 755.057 226.198C747.652 229.352 750.239 235.21 751.38 240.868C749.96 260.32 798.757 253.886 811.92 252.684C822.724 256.014 833.884 251.608 844.891 249.755C848.467 262.273 861.3 258.567 873.55 258.567C878.014 267.955 891.507 264.426 901.449 264.426C911.296 264.153 920.906 261.376 929.348 256.364C937.793 260.921 947.456 261.672 956.536 265.151C973.681 273.313 994.148 271.435 1012.33 268.832C1016.49 273.263 1022.93 273.037 1028.49 273.838C1035.32 273.564 1042.03 272.071 1048.32 269.432C1067.57 276.943 1094.71 274.965 1112.24 267.955C1153.68 244.924 1247.97 237.563 1290.03 256.239C1334.13 276.768 1390.33 278.47 1439.84 275.09V177.856C1367 166.215 1290.86 151.745 1215.84 153.673C1197.5 154.148 1179.88 161.734 1162.2 161.734C1140.21 168.318 1094.53 157.979 1064.48 161.734L913.141 155.15C910.448 153.538 907.456 152.474 904.34 152.021V152.121Z" fill="url(#paint0_linear)"/>
<path d="M1358.28 49.8798C1349.93 47.6517 1344.76 45.7491 1335.45 50.3805C1331.65 52.8839 1331.39 55.7128 1329.87 59.493C1324.04 57.3901 1319.52 59.7684 1315.19 63.5486C1314.17 66.5528 1315.19 68.2801 1315.69 71.059C1306.38 71.4846 1298.9 77.3677 1293.37 84.7278C1282.52 72.0103 1270.07 88.8836 1270.07 100.399C1263.95 99.1227 1257.74 102.552 1252.31 104.956C1251.86 97.4454 1251.88 93.3898 1243.69 95.8432C1240.82 88.9587 1237.04 89.0838 1233.54 95.3425C1231.43 94.3817 1229.09 93.9889 1226.77 94.2037C1224.45 94.4185 1222.22 95.2332 1220.32 96.5659C1218.42 97.8985 1216.91 99.702 1215.94 101.795C1214.97 103.887 1214.58 106.195 1214.8 108.486C1204.4 105.306 1193.93 109.963 1191.97 119.626C1190.91 125.209 1194.13 128.939 1197.53 133.295C1192.86 134.797 1193.5 140.505 1193.5 145.437C1205.24 155.45 1225.25 154.524 1240.11 154.524C1255.81 164.838 1274.2 162.635 1292.28 162.635C1299.16 174.301 1318.03 170.822 1330.33 169.72C1344.71 176.254 1361.52 172.649 1376.44 168.193C1396.14 177.381 1419.83 177.431 1439.84 174.877V19.8634C1436.92 18.7869 1434.59 20.7396 1431.75 23.5685C1427.29 19.0372 1425.36 20.2639 1422.11 24.5949C1415.65 21.9162 1415.54 23.0427 1413.52 27.6241C1407.45 28.3 1405.32 29.2513 1402.36 33.7075C1399.31 30.2527 1396.62 32.681 1393.23 35.2095C1372.68 14.3307 1361.04 36.6365 1358.28 49.8798V49.8798Z" fill="white"/>
<path d="M1221.72 154.299C1225.66 156.051 1234.76 161.459 1237.63 151.42C1236.61 141.256 1227.48 135.948 1218.83 142.758C1217.49 140.73 1216.3 136.599 1213.08 134.096C1213.08 129.289 1215.61 127.537 1208.74 125.459C1213.68 122.705 1215.26 125.91 1214.52 117.523C1216.02 110.013 1213.71 105.181 1207.29 113.192C1204.33 111.94 1205.69 107.109 1198.62 109.587C1197.63 107.084 1198.85 104.255 1195.73 102.377C1199.99 99.1727 1202.19 100.149 1200.8 92.9892C1201.81 92.9892 1203.67 97.9961 1208.76 93.7152C1210.62 84.4023 1208.1 77.9935 1197.2 82.9003C1195.09 78.1437 1197.98 74.6639 1187.79 77.1173C1178.58 74.8561 1169.06 74.1284 1159.61 74.9643C1157.43 75.44 1159.61 66.778 1153.12 76.3913C1151.37 77.7432 1146.88 73.8878 1146.63 81.3982C1143.73 74.8892 1145.41 73.6876 1137.22 77.0672C1133.84 73.7126 1133.69 70.1827 1126.39 74.1883C1125.42 71.6848 1123.67 69.9574 1123.5 66.9783C1129.76 62.2968 1131.1 60.6446 1125.68 50.3804C1122.28 42.8701 1121.85 36.8618 1111.22 35.9605C1107.95 33.4571 1106.6 30.3278 1100.37 29.4515C1098.54 20.2639 1094.33 13.5797 1088.09 20.8146C1083.02 18.0358 1075.05 13.5046 1067.14 21.5156C1043.73 35.9605 1045.86 64.6751 1035.36 83.5512C1027.93 83.8265 1029.45 84.7028 1027.4 91.4871C1020.35 84.127 1016.24 82.4997 1012.18 91.4871C1000.74 82.2494 991.89 83.8015 993.387 98.7221C992.119 101.576 995.695 102.152 996.278 103.028C988.669 106.708 989.912 109.512 991.206 116.021C983.774 116.922 984.687 117.999 984.687 125.409C978.068 123.181 976.394 126.035 972.412 129.014C980.452 135.723 985.474 136.524 992.702 128.288C998.788 131.097 1005.64 131.853 1012.21 130.441L1016.54 138.377C1006.12 149.417 1026.56 151.47 1036.83 141.281C1039.62 139.378 1042.56 139.829 1045.48 139.103C1045.1 150.744 1054.36 151.62 1063.56 150.644C1072.69 160.182 1081.32 155.025 1091.74 150.644C1101.46 154.098 1114.31 157.829 1128.57 154.975C1136.73 150.844 1131.64 148.591 1130.75 145.587C1136.71 142.808 1140.06 145.211 1143.76 146.313C1148.83 160.107 1158.98 155.4 1166.87 148.491C1165.95 137.3 1175.59 141.982 1184.21 141.982C1185.99 145.912 1184.21 148.04 1184.21 151.37C1191.69 156.527 1195.17 153.398 1200.12 150.644C1207.37 156.927 1213.53 156.727 1221.77 154.249L1221.72 154.299Z" fill="white"/>
<path d="M1069.35 20.8647C1075.64 21.3654 1076.96 25.3959 1079.49 27.3486C1076.09 29.0009 1074.42 32.8562 1073 34.5586C1075.92 42.0689 1077.87 35.5349 1080.23 36.0106C1082.76 40.3666 1086.52 41.0175 1090.37 41.7685C1097.55 37.1872 1096.92 38.9396 1101.2 44.6475C1110.36 46.9256 1105.08 50.7058 1103.36 53.3094C1115.28 60.3692 1104.35 58.9422 1106.25 63.3232C1095.14 56.589 1090.75 63.6988 1089.64 74.8642C1090.45 78.4441 1098.79 77.0171 1104.09 77.0171C1093.75 89.8598 1105.23 96.3187 1117.81 95.042C1120.48 93.8153 1122.35 90.0351 1123.6 88.5581C1127.25 96.6442 1128.52 97.946 1137.32 97.946C1140.72 95.8431 1144.34 94.4412 1147.46 92.9391C1152.28 98.4968 1156.47 97.946 1163.37 97.946C1165.88 100.764 1168.8 103.194 1172.04 105.156C1169.02 108.285 1170.16 110.163 1169.15 113.092C1162.4 115.595 1163.62 116.797 1161.92 122.455C1160.58 119.951 1158.09 121.503 1156.14 121.028C1158.17 110.664 1153.98 114.394 1149.64 115.245C1144.12 111.69 1144.14 113.918 1139.5 115.971C1131.89 107.86 1124.69 108.936 1118.55 115.971C1123.12 116.997 1119.51 119.351 1120 120.978C1113.43 118.349 1111.4 118.775 1104.78 122.405C1107.09 113.893 1103.48 116.246 1098.29 115.195C1092.17 113.142 1086.44 113.868 1080.23 114.469C1080.08 108.41 1079.37 105.156 1076.6 101.501C1072.31 95.8431 1069.47 98.6219 1066.46 98.6219C1065.01 89.5845 1064.93 92.163 1059.23 96.4439C1051.62 96.6692 1049.08 92.5385 1044.77 89.234C1044.49 79.3954 1038.84 81.3231 1031.76 82.024C1030.14 74.2383 1033.81 71.2342 1038.28 66.1522C1031.05 69.7321 1027.75 73.1118 1023.82 63.2732C1028.39 54.4861 1037.09 51.8074 1044.77 50.2803C1041.91 39.7407 1042.72 33.7825 1050.55 27.9244C1057.02 22.2166 1060.37 21.5907 1069.32 20.7145L1069.35 20.8647Z" fill="url(#paint1_radial)"/>
<path d="M1029.28 85.3787C1028.5 87.3896 1027.89 89.4571 1027.45 91.5622C1020.4 84.0519 1016.29 82.5498 1012.23 91.5622C1000.79 82.2995 991.942 83.8767 993.438 98.7722C992.17 101.626 995.746 102.202 996.329 103.078C988.721 106.758 989.963 109.562 991.257 116.071C983.826 116.972 984.739 118.049 984.739 125.459C978.119 123.231 976.445 126.085 972.463 129.064C980.503 135.773 985.525 136.574 992.753 128.338C998.839 131.147 1005.69 131.904 1012.26 130.491L1016.59 138.427C1006.17 149.467 1026.61 151.52 1036.88 141.331C1039.7 139.428 1042.64 139.879 1045.58 139.153C1045.2 150.819 1054.43 151.67 1063.64 150.694C1072.75 160.232 1081.39 155.075 1091.82 150.694C1101.53 154.149 1114.39 157.879 1128.64 155.025C1136.81 150.894 1131.71 148.641 1130.83 145.637C1136.79 142.858 1140.13 145.261 1143.84 146.363C1148.91 160.157 1159.05 155.45 1166.94 148.541C1166.03 137.35 1175.67 142.032 1184.29 142.032C1186.09 145.962 1184.29 148.09 1184.29 151.42C1191.77 156.577 1195.25 153.448 1200.19 150.694C1207.45 156.977 1213.61 156.777 1221.85 154.299C1225.78 156.051 1234.89 161.459 1237.75 151.42C1236.74 141.256 1227.61 135.948 1218.96 142.758C1218.05 141.381 1217.13 139.078 1215.71 136.95C1212.96 139.137 1210.41 141.567 1208.11 144.21C1206.46 140.455 1204.12 138.727 1203.03 134.196C1199.81 136.074 1196.39 131.693 1194.36 139.203C1192.08 137.125 1187.61 134.697 1185.68 131.267C1174.6 130.165 1168.46 133.37 1159.66 137.05C1155.71 136.249 1153.78 134.547 1149.52 137.05V129.765C1145.18 123.281 1143.51 119.301 1133.62 124.007C1128.67 120.302 1128.8 117.498 1119.89 121.854C1115.51 123.306 1106.66 126.135 1103.99 134.096C1102.06 133.62 1099.5 137.676 1098.21 132.669C1097.65 130.466 1090.35 131.167 1096.05 124.007C1090.55 121.504 1084.62 118.575 1076.53 126.886C1076.53 129.715 1078.07 135.498 1075.08 140.605C1072.31 138.101 1068.21 136.149 1067.14 131.217C1066.18 120.652 1062.07 118.299 1054.13 124.733C1049.18 122.53 1046.78 120.077 1041.85 126.16C1036.63 125.659 1034.5 126.736 1030.29 121.854C1034.09 114.995 1036.48 112.541 1044.75 117.523C1045.68 117.523 1050.02 115.195 1051.97 117.523C1054.51 116.146 1056.31 112.516 1062.12 112.516C1060.75 108.461 1059.74 99.9989 1050.55 98.8223C1045.33 91.8376 1037.42 87.2563 1028.16 94.4913C1028.77 91.5042 1029.13 88.4736 1029.25 85.4288L1029.28 85.3787Z" fill="url(#paint2_radial)"/>
<path d="M1235.29 98.1711C1232.9 98.2791 1230.6 99.0898 1228.67 100.499C1226.14 101 1221.88 98.4966 1220.18 104.355C1213.74 99.523 1205.16 101.376 1207.09 115.896C1197.43 120.126 1200.47 121.904 1208.64 124.357C1209.85 134.021 1214.78 134.521 1224.03 133.595C1226.29 122.004 1230.25 130.491 1231.64 129.74C1230.35 135.122 1234.76 134.947 1236.26 137.425C1228.65 133.52 1226.26 137.25 1222.41 138.977C1214.22 133.695 1215.16 140.53 1211.61 141.281C1203.51 137.4 1200.07 139.829 1194.66 142.808C1190.5 133.795 1184.52 140.304 1176.91 143.584C1170.11 145.887 1165.62 142.758 1157.63 144.36C1150.03 140.354 1143.23 139.753 1134.53 139.753C1125.85 136.349 1117.46 139.753 1112.95 142.057C1108.38 135.197 1105.67 140.379 1102.8 139.753C1093.64 138.402 1087.99 137 1076.6 142.057C1070.36 139.078 1066.23 132.443 1062.73 128.964C1060.06 130.115 1061.71 132.544 1061.21 134.346C1054.69 137.375 1047.36 136.349 1041.17 138.201C1037.06 140.98 1040.54 141.957 1040.41 142.808C1030.49 143.884 1028.11 140.304 1027.3 132.043C1022.22 122.029 1019.21 123.932 1012.66 125.133C1002.52 117.623 996.507 122.78 990.318 129.74C983.217 133.194 988.239 135.122 986.463 139.753C981.813 137.381 976.891 135.565 971.804 134.346C963.789 132.894 968.177 137.55 965.641 139.753C962.166 131.067 958.539 135.122 954.862 135.122C951.514 124.457 944.539 127.311 938.681 135.122C936.144 139.453 937.565 143.233 937.92 146.663C936.119 147.014 934.115 149.817 933.278 150.518C929.423 138.777 915.22 138.001 909.387 149.742C907.561 157.253 908.22 156.351 914.789 161.283L918.644 160.507C923.184 164.913 925.847 164.112 930.97 165.138C925.084 165.992 919.103 165.992 913.217 165.138L909.362 165.89C900.434 158.529 893.967 155.65 893.967 166.666C897.771 170.946 900.333 170.721 904.746 172.048C910.097 178.307 914.079 177.38 922.499 178.207C927.217 178.857 928.941 180.41 933.278 182.813C926.286 179.655 918.437 178.846 910.934 180.51C903.654 177.449 895.671 176.385 887.829 177.43C881.59 171.347 875.604 171.672 869.34 172.824C864.416 170.946 859.012 170.674 853.92 172.048C845.728 172.774 836.978 174.351 829.267 174.351C826.401 170.471 826.959 167.316 826.959 162.81C817.854 163.737 818.311 168.994 817.702 175.127C825.293 179.041 833.799 180.898 842.354 180.51C848.619 177.556 854.325 182.412 860.869 184.365C858.155 185.141 855.796 185.391 853.26 185.892C842.608 190.248 832.97 187.369 823.206 185.116C821.015 182.694 818.236 180.86 815.131 179.787C812.026 178.714 808.695 178.437 805.452 178.983C799.923 179.208 798.325 183.339 794.673 188.195C784.528 185.892 783.108 190.974 783.108 200.512C788.691 201.858 794.348 202.886 800.05 203.592C804.126 202.962 808.252 202.702 812.376 202.815C820.547 203.817 828.838 202.487 836.267 198.985C844.789 203.116 858.815 203.992 868.63 205.895C871.166 209.074 867.362 209.725 867.108 210.526C858.801 207.185 849.874 205.607 840.909 205.895C832.286 206.821 824.93 210.501 816.231 211.277C822.394 215.483 827.34 215.858 835.507 216.66C830.047 218.47 824.292 219.259 818.539 218.988C807.38 212.404 806.162 217.586 803.144 224.37C870.659 232.281 846.539 225.547 830.104 232.832C820.619 226.248 809.815 225.647 801.597 232.832C794.749 235.961 767.764 235.786 761.271 234.384C759.8 242.395 782.854 240.017 790.032 243.597C787.267 246.225 783.945 244.623 780.8 245.149C787.064 254.737 796.525 250.156 806.999 247.452C815.521 257.466 829.825 253.26 841.67 250.531C849.684 246.576 857.978 248.453 866.17 250.656C867.038 250.758 867.891 250.969 868.706 251.282L866.17 250.656C861.782 250.056 861.63 253.986 858.561 255.138C867.488 260.52 876.796 259.694 886.307 255.914C894.293 254.533 902.142 252.472 909.768 249.755C914.612 252.734 921.282 250.681 925.974 249.755C925.619 245.424 924.757 242.971 922.88 241.243C919.882 240.392 917.028 239.11 914.409 237.438C917.476 238.093 920.365 239.39 922.88 241.243C932.036 243.922 942.105 242.996 951.387 242.07C953.01 253.385 959.96 252.834 970.663 252.834C975.253 247.001 978.271 247.527 979.134 256.665C977.13 263.649 978.221 261.296 983.75 264.375C992.094 263.399 999.195 260.921 1007.64 258.993C1015.6 266.328 1025.88 265.902 1036.15 265.902C1040.36 262.548 1043.76 259.118 1047.71 255.889C1052.35 257.816 1055.85 255.889 1060.04 255.113C1072.9 264.25 1092.38 252.459 1105.39 256.364C1104.45 257.834 1103.3 259.166 1101.99 260.32C1091.84 256.69 1086.04 259.218 1077.56 264.3C1083.12 271.185 1087.71 271.66 1096.31 271.66C1100.36 270.579 1104.34 269.259 1108.23 267.705C1120.08 270.903 1132.68 270.101 1144.01 265.427C1147.89 267.48 1150.89 264.776 1152.51 264.3C1152.18 261.321 1153.22 260.145 1153.65 257.491C1158.09 255.663 1162.66 256.464 1167.27 256.94C1167.93 263.749 1171.58 263.649 1178.08 264.3C1184.82 274.69 1207.29 269.532 1217.82 264.876C1224.52 267.572 1231.98 267.768 1238.82 265.427C1237.17 268.706 1238.95 271.71 1239.4 273.939C1251.3 279.246 1264.16 273.939 1275.19 269.958C1277.14 269.987 1279.07 270.378 1280.87 271.11C1282.8 279.246 1287.59 284.052 1295.05 288.108C1311.2 296.319 1400.83 299.924 1439.97 287.557V260.595C1434.01 259.915 1427.98 260.409 1422.21 262.047C1409.53 251.082 1382.5 248.904 1364.29 254.111C1361.47 251.608 1359.01 249.255 1356.32 246.751C1349.78 244.974 1338.32 245.65 1330.2 243.922C1330.58 242.595 1329.36 240.793 1331.34 239.942C1342.8 239.942 1353.68 239.366 1364.31 234.935C1367.99 239.942 1368.65 240.517 1377.37 238.915C1391.42 236.111 1406.62 242.996 1420.49 237.764C1418.59 236.287 1416.56 236.212 1415.42 233.808C1403.83 233.808 1391.04 233.808 1381.36 229.277C1378.85 227.658 1375.97 226.704 1372.98 226.507C1370 226.31 1367.01 226.876 1364.31 228.15C1360.43 224.27 1356.04 221.491 1351.25 229.853C1347.64 229.596 1344.01 229.781 1340.45 230.404C1334.28 230.404 1329.97 231.18 1326.83 224.746C1322.24 220.164 1319.4 219.739 1310.37 223.594C1303.65 223.594 1298.04 223.92 1292.76 228.601C1286.04 223.594 1274.15 225.071 1263.22 228.05C1256.6 225.746 1249.39 225.746 1242.78 228.05C1242.34 225.547 1243.33 223.744 1241.66 221.792C1236.28 221.266 1231.51 219.288 1229.71 225.196C1228.36 228.485 1225.98 231.264 1222.92 233.132C1214.51 231.443 1205.93 230.688 1197.35 230.879C1194.82 224.796 1193.47 220.089 1186.57 219.538C1191.24 214.882 1192.35 209.675 1183.73 208.198C1185.47 206.164 1187.37 204.272 1189.41 202.54C1194.59 206.696 1200.82 209.363 1207.43 210.246C1214.04 211.13 1220.77 210.196 1226.87 207.547C1235.42 212.279 1249.85 211.277 1259.84 208.699C1261.47 212.329 1261.11 214.632 1265.78 216.609C1277.27 215.783 1291.14 215.558 1300.45 205.044C1306.46 207.117 1312.65 208.667 1318.94 209.675C1327.51 208.824 1333.78 204.443 1341.28 205.044C1341.43 205.669 1336.21 212.554 1342.83 211.978C1347.01 212.804 1357.26 214.482 1365.17 209.675C1373.52 209.675 1381.99 207.647 1389.07 208.123C1392.19 212.304 1389.37 214.456 1397.54 215.833C1406.44 220.84 1412.37 222.443 1420.67 215.833C1426.98 219.338 1434.01 218.562 1439.97 221.591V112.291C1435.71 112.457 1431.63 113.996 1428.35 116.672C1420.03 115.82 1410.9 118.024 1406.01 128.213C1400.2 127.036 1393.05 125.934 1385.97 128.964C1380.24 125.784 1377.17 123.456 1369.03 125.884C1361.42 128.613 1354.95 132.068 1346.68 129.74C1339.72 129.587 1332.83 131.172 1326.65 134.346C1324.77 133.795 1318.66 130.19 1313.56 131.267C1323.15 121.704 1327.21 130.04 1339.74 125.133C1345.77 127.787 1348.43 129.99 1355.16 123.581C1360.23 124.032 1364.97 126.71 1369.03 116.672C1380.62 107.985 1368.85 106.458 1358.25 111.264C1350.39 105.381 1352.72 101 1344.38 105.882C1340.85 103.378 1337.3 98.6468 1329.74 99.7483C1321.75 98.1461 1316.93 96.3937 1315.87 108.21C1314.2 108.36 1306.26 106.683 1300.45 112.816C1298.83 108.611 1300.02 106.458 1296.59 102.803C1286.3 98.2212 1287.57 103.278 1278.84 109.712C1275.42 105.131 1276.3 102.202 1268.06 104.33C1266.24 104.154 1264.71 97.2699 1259.59 103.554C1255.56 103.954 1251.5 100.524 1249.57 109.712C1247.01 107.116 1244.17 104.799 1241.1 102.803C1238.44 100.8 1237.7 98.4215 1235.39 98.1461L1235.29 98.1711Z" fill="url(#paint3_linear)"/>
<path d="M1431.8 30.6783C1427.24 30.5031 1423.43 33.0315 1419.12 37.2624C1411.51 34.7589 1408.42 37.2624 1402.94 39.7658C1396.72 34.1831 1392.34 37.7631 1388.41 38.1386C1377.4 26.873 1366.39 32.9564 1361.72 44.5975C1359.19 48.1774 1364.26 50.756 1364.97 52.6586C1354.83 51.482 1353.66 53.4597 1348 60.7448C1345.87 50.3054 1340.72 52.7587 1333.45 53.4847C1324.42 50.9813 1320.23 54.3109 1314.86 58.3164C1313.48 61.715 1312.4 65.2245 1311.63 68.8059C1302.05 64.3497 1299.66 69.8824 1297.08 79.2954C1307.09 83.1507 1316.55 79.6208 1326.17 76.7919C1326.17 85.6541 1330.28 87.6068 1335.07 91.3119C1326.75 88.1576 1326.6 90.3857 1322.95 96.9697C1311.61 94.4663 1309.68 97.2201 1303.54 104.23C1303.94 105.562 1304.66 106.777 1305.65 107.764C1306.63 108.752 1307.86 109.482 1309.2 109.888C1316.81 112.166 1322.82 107.659 1329.49 105.031C1336.29 117.223 1353.68 115.52 1367.53 115.52C1369.76 117.645 1372.2 119.541 1374.81 121.178C1378.65 119.358 1382.7 117.98 1386.86 117.072C1382.88 110.989 1377.5 111.039 1373.11 110.614C1377.35 100.925 1389.09 100.6 1398.17 102.552C1398.04 105.757 1397.64 108.285 1397.36 111.415C1400.68 107.209 1404.03 108.31 1408.67 107.384C1411.89 94.1659 1433.45 91.1868 1439.84 102.377V33.4071C1437.43 31.8552 1434.67 30.9176 1431.8 30.6783V30.6783Z" fill="url(#paint4_radial)"/>
<path d="M1171.56 192.677C1154.92 192.677 1135.52 198.109 1122.13 188.296C1113.62 188.468 1105.11 187.729 1096.76 186.093C1087.08 186.093 1082.54 185.567 1075.89 192.677C1065.75 196.357 1058.01 199.812 1049.51 203.642C1039.67 203.642 1032.27 201.138 1023.16 199.261C1015.35 200.037 1012.36 199.736 1005.59 203.642H984.714C977.435 203.642 970.638 203.867 963.841 200.362C960.543 201.088 956.536 198.735 953.949 202.54C941.953 201.464 930.083 201.138 918.797 195.981H893.435C898.735 209.3 912.355 204.743 926.406 204.743C934.803 208.478 943.677 211.064 952.782 212.429C956.282 210.176 960.112 211.703 963.764 211.327C973.098 223.694 988.797 224.496 1004.34 224.496C1014.49 221.992 1024.96 220.665 1035.08 217.911C1043.58 223.269 1050.3 224.496 1060.45 224.496C1065.92 220.115 1069.58 220.991 1074.72 219.013C1082.76 226.123 1092.12 224.496 1102.19 224.496C1121.47 222.343 1142.06 217.636 1160.4 206.971C1179.07 210.051 1195.55 195.13 1171.38 192.702L1171.56 192.677Z" fill="url(#paint5_linear)"/>
<path d="M929.398 153.322C929.398 155.1 920.623 158.054 929.398 163.662C938.858 179.809 953.619 176.579 976.293 176.579C991.181 185.967 1013.63 183.038 1034.93 183.038C1052.1 194.704 1071.6 194.654 1095.52 194.654C1094.07 196.714 1092.76 198.873 1091.62 201.113C1112.18 215.058 1152.49 207.572 1183.45 207.572C1196.57 200.788 1203.26 215.909 1218.96 214.857C1246.48 219.639 1288.05 209.85 1315.34 206.846C1343.54 203.266 1406.79 213.58 1439.82 206.12V155.275C1366.57 164.963 987.503 183.189 929.398 153.322Z" fill="url(#paint6_linear)"/>
<path d="M1211.35 177.355C1201.82 178.657 1196.41 180.485 1185.41 178.657C1168.26 179.433 1146.78 182.112 1136.1 174.126C1123.19 175.728 1110.61 178.908 1097.17 179.283C1094.03 178.707 1091.59 176.579 1086.8 177.355C1078.81 177.355 1070.84 177.806 1063.44 176.054C1059.48 176.454 1055.02 177.08 1050.48 177.355C1037.16 178.557 1030.37 179.133 1028.41 171.547C1042.21 166.14 1053.42 167.767 1064.73 170.897C1070.49 167.667 1079.62 169.845 1082.92 169.62C1088.47 168.869 1091.62 171.522 1094.58 172.123C1105.19 167.867 1113.58 168.193 1125.73 167.592C1131.83 167.627 1137.92 168.281 1143.89 169.545C1150.61 170.246 1156.8 170.396 1163.34 170.821C1176.02 163.737 1187.16 165.815 1198.39 167.592C1208.99 166.49 1202.04 170.321 1203.46 171.472C1216.68 169.369 1224.87 172.899 1234.61 175.979C1224.97 179.859 1221.07 178.257 1211.25 177.28L1211.35 177.355Z" fill="url(#paint7_linear)"/>
<path d="M440.9 146.141C437.394 138.041 434.799 134.442 423.788 138.215C423.192 129.388 420.036 121.808 409.2 127.138C409.445 122.362 410.392 120.977 404.466 118.416C401.17 107.374 393.42 103.324 384.759 113.674C379.814 111.666 379.043 108.932 375.781 114.227C370.112 112.504 364.162 111.858 358.248 112.324C348.955 107.72 334.753 107.028 327.67 121.462C318.798 122.015 315.081 123.608 315.151 131.846C311.442 131.343 307.664 131.784 304.175 133.126C302.668 129.25 303.229 127.519 300.108 123.781C301.746 120.652 302.242 117.061 301.514 113.613C300.786 110.165 298.878 107.07 296.11 104.847C296.841 100.864 296.576 96.7649 295.339 92.9056C308.454 84.1484 295.689 70.9261 281.312 79.9948L280.961 74.5951C272.23 67.9839 261.464 62.7227 254.696 75.6681C252.623 76.0148 250.5 75.9441 248.454 75.4604C245.474 64.6956 227.94 58.4306 226.082 71.9991C223.39 72.6939 220.623 73.0658 217.841 73.1067C213.598 71.7914 211.494 69.853 205.322 72.6913C195.399 74.1797 189.613 78.0218 191.085 87.9905C183.756 85.706 175.972 84.1484 171.168 91.0364C169.126 87.5911 166.05 84.8574 162.366 83.2138C164.33 80.5832 162.822 78.1949 168.923 77.3988C169.449 78.091 172.816 79.3717 171.939 81.4139C206.304 92.1787 174.674 39.8778 160.157 70.753C158.228 70.753 153.774 68.607 150.443 70.1646C146.481 59.7805 139.572 63.2419 127.159 63.8303C119.795 56.3538 117.516 58.3614 108.468 64.3841C95.8443 65.1802 87.0075 67.1186 92.1272 79.2333C84.0619 83.733 80.5903 86.779 88.34 95.6747C87.5686 106.439 90.3739 110.731 98.5795 114.816C88.6206 134.442 105.347 135.584 118.392 142.957C120.391 144.895 117.551 148.079 117.41 149.014C116.919 155.694 121.583 156.317 125.651 158.706C123.337 165.248 126.878 164.59 129.158 167.497C135.259 169.47 141.817 167.497 147.077 165.767C146.516 183.316 166.118 187.366 181.267 180.408C193.856 186.916 211.564 197.334 224.223 190.792C230.5 188.954 236.897 187.543 243.37 186.569C255.994 192.765 272.019 189.339 282.925 187.677C299.547 190.515 317.185 184.873 332.229 178.608C336.577 183.212 342.749 182.07 352.532 182.07C357.618 181.505 362.496 179.761 366.769 176.982C374.294 177.96 381.941 176.643 388.686 173.209C404.817 183.177 418.388 179.301 429.574 173.209C439.498 177.362 446.511 175.597 455.909 173.209C471.408 185.843 492.238 161.232 471.513 157.217C467.341 146.141 457.802 146.522 448.895 150.295C446.581 145.276 445.178 147.318 440.97 146.003L440.9 146.141Z" fill="url(#paint8_linear)"/>
<path d="M84.1313 87.8519C84.6356 90.914 86.1521 93.7254 88.4445 95.8476C87.6731 106.612 90.4784 110.904 98.684 114.989C88.7251 134.615 105.452 135.757 118.497 143.13C120.495 145.068 117.655 148.252 117.515 149.187C117.024 155.867 121.688 156.49 125.755 158.879C123.441 165.421 126.983 164.763 129.262 167.67C135.364 169.643 141.921 167.67 147.181 165.94C146.62 183.489 166.222 187.539 181.371 180.581C193.96 187.089 211.669 197.507 224.328 190.965C230.605 189.127 237.002 187.716 243.474 186.742C256.098 192.938 272.124 189.511 283.029 187.85C299.651 190.688 317.29 185.046 332.333 178.781C336.681 183.385 342.853 182.243 352.672 182.243C357.745 181.671 362.61 179.928 366.874 177.155C374.398 178.133 382.046 176.816 388.791 173.382C404.921 183.35 418.492 179.474 429.678 173.382C439.602 177.535 446.615 175.77 456.013 173.382C470.285 185.046 489.081 165.04 475.616 158.706C471.793 169.955 457.486 172.551 451.735 160.436C449.561 155.279 450.543 154.067 442.898 152.614C443.319 153.306 447.492 155.002 446.019 157.806C437.077 165.524 416.669 166.494 418.562 151.16C413.057 155.902 408.288 159.19 399.661 158.948C390.579 159.502 383.986 159.363 379.182 153.029C363.858 168.086 326.933 172.897 332.894 144.549C322.164 150.571 301.79 160.817 293.62 148.218C288.149 156.975 255.923 168.986 250.137 166.563C230.254 187.712 206.198 166.217 229.448 152.233C223.935 152.042 218.488 150.979 213.317 149.083C209.144 158.671 193.925 154.587 198.799 170.959C193.224 170.959 191.435 172.447 188.279 167.497C167.59 178.054 154.826 157.321 180.074 158.429C180.424 157.529 177.935 155.452 181.266 155.348C174.884 148.425 169.589 144.687 176.532 135.861C158.823 136.968 161.243 147.422 147.076 152.094C148.303 147.664 150.127 145.172 149.811 140.534C143.289 139.426 134.417 135.307 135.013 125.892C139.229 122.402 144.383 120.201 149.846 119.558C143.85 117.135 135.188 113.985 126.211 118.623C112.711 122.742 108.222 118.623 108.678 105.92C100.507 103.393 94.6513 102.009 95.9488 91.7286C90.794 90.2749 86.7964 90.4479 84.1313 87.8519Z" fill="url(#paint9_linear)"/>
<path d="M91.8814 96.6437C90.698 96.7239 89.5244 96.9093 88.3747 97.1975C87.989 106.855 90.8644 111.043 98.6843 114.885C88.7254 134.511 105.452 135.653 118.497 143.026C120.496 144.964 117.655 148.148 117.515 149.083C117.024 155.763 121.688 156.386 125.756 158.775C123.441 165.317 126.983 164.659 129.262 167.567C135.364 169.54 141.922 167.567 147.182 165.836C146.852 168.946 147.474 172.083 148.968 174.841C150.462 177.599 152.759 179.851 155.562 181.308C156.406 178.278 158.092 175.542 160.427 173.407C162.763 171.273 165.657 169.825 168.783 169.228C162.085 160.125 160.542 151.679 178.11 150.398C177.619 149.533 172.184 147.698 173.376 142.472C177.164 138.214 176.462 134.372 186.386 131.603C183.37 128.142 186.772 122.881 178.391 122.085C177.199 118.069 173.482 112.67 176.357 106.682C180.986 100.59 181.442 97.8552 191.611 98.409C180.725 98.9325 169.855 97.0891 159.77 93.0093C155.072 99.1705 154.265 101.49 144.516 102.182C141.01 102.701 137.503 101.94 133.996 103.739C126.106 117.966 99.2454 121.842 99.8415 97.6821C97.2752 96.8566 94.5768 96.5046 91.8814 96.6437V96.6437Z" fill="url(#paint10_linear)"/>
<path d="M106.925 92.6632C113.448 108.135 127.965 96.7822 137.293 89.8249C140.519 89.9104 143.728 90.328 146.866 91.0709C152.056 89.8941 150.373 88.198 152.898 86.1212C158.473 89.5826 162.12 88.8211 167.941 90.6556C158.333 107.962 149.812 108.205 129.088 109.52C121.583 144.964 73.8926 94.7746 106.925 92.6632Z" fill="#D9E3EC"/>
<path d="M174.429 142.091C181.443 152.787 175.271 152.095 168.538 153.098C162.507 157.979 166.574 160.021 166.224 161.44C159.526 162.548 159.21 164.106 154.231 166.321C155.423 173.243 158.404 172.759 165.172 174.628C165.873 171.374 167.661 166.771 168.328 164.59C176.253 165.732 176.288 161.89 180.285 158.948C188.205 158.865 196.085 157.819 203.745 155.833C205.792 152.077 207.437 148.122 208.654 144.03C207.637 122.396 183.512 131.88 174.429 142.091V142.091Z" fill="url(#paint11_linear)"/>
<path d="M216.753 157.079C218.857 143.58 228.01 145.206 237.022 143.96C242.598 147.179 246.911 147.076 251.434 148.529C252.767 142.853 259.5 139.184 262.34 135.965C270.23 132.746 281.171 134.961 285.8 135.411C286.746 129.146 292.287 128.973 294.636 126.619C304.455 125.719 304.806 129.319 310.241 132.019C316.869 138.941 320.761 131.361 321.953 131.292C321.007 120.908 321.953 125.477 331.947 122.465C336.471 118.623 341.976 119.177 345.729 117.931C348.744 131.188 342.432 133.992 329.563 139.945C338.645 141.641 338.82 144.791 343.064 149.152C343.064 158.913 342.678 157.321 330.825 159.952C325.25 157.563 326.302 170.717 321.813 168.744C316.507 166.846 310.961 165.681 305.332 165.282C304.595 178.678 291.06 159.502 275.771 161.821C240.704 165.871 255.046 176.843 241.546 177.674C242.107 172.378 239.161 169.817 238.565 167.809C221.593 185.427 217.525 167.497 216.753 157.425V157.079Z" fill="url(#paint12_linear)"/>
<path d="M263.883 140.084C249.857 146.695 245.053 151.229 229.483 152.198C212.335 146.245 213.282 143.649 214.895 133.265C215.877 125.546 202.201 124.161 202.166 124.127C179.162 114.92 188.139 105.055 205.497 100.728C209.46 98.1321 205.077 93.8054 204.34 91.9709C214.334 82.4869 218.928 81.1369 233.305 80.237C234.895 82.6581 236.279 85.2051 237.443 87.8519C244.281 80.0985 247.016 83.9406 254.17 83.4906C263.533 70.7183 272.159 74.9758 280.75 81.8292C273.422 85.4982 268.126 91.9017 263.463 96.1592C266.501 98.6503 269.907 100.67 273.562 102.147C250.839 97.1629 225.766 118.554 261.674 124.404C249.19 138.007 263.568 138.041 263.883 140.257V140.084Z" fill="url(#paint13_linear)"/>
<path d="M54.6968 772.694C55.2228 772.694 56.0293 773.802 57.1515 776.432C63.4635 777.125 62.5868 794.916 63.1128 800.662C63.8141 807.169 64.1648 813.815 65.1116 820.357C70.2068 822.702 75.5784 824.411 81.102 825.445C84.8191 830.429 79.9799 832.022 75.3861 831.641C79.1383 836.902 74.1237 838.564 68.8287 836.417C71.2684 838.961 74.3204 840.854 77.7005 841.921C77.7005 846.525 73.9133 845.832 70.6872 845.59C73.6919 850.872 77.8922 855.397 82.9605 858.812C84.1177 865.493 77.42 863.416 73.8432 861.062C76.5365 865.049 77.7734 869.823 77.3499 874.596C77.5596 874.692 77.7593 874.808 77.946 874.942C78.5508 874.008 79.4659 873.311 80.5342 872.97C81.6026 872.629 82.7579 872.666 83.8021 873.073C84.2229 870.754 84.5736 868.435 85.0996 866.15C85.0996 865.7 76.6485 863.901 86.362 860.785C88.2907 859.955 89.8687 858.224 92.3584 858.051C92.5186 856.897 92.923 855.789 93.5453 854.799C94.1675 853.809 94.9937 852.959 95.9703 852.305C84.5035 852.305 96.6365 843.548 102.984 847.113C103.166 845.369 103.011 843.608 102.528 841.921C92.0077 841.921 95.5144 836.591 103.439 834.548C103.79 830.845 103.439 829.045 107.367 826.76C107.375 824.596 107.235 822.433 106.946 820.288C106.946 816.238 106.175 814.507 110.453 815.096C109.05 810.007 107.577 805.888 110.032 800.8C111.014 798.62 111.855 797.685 112.627 797.685C115.923 797.685 117.221 814.438 117.501 818.972C118.094 820.051 118.366 821.274 118.286 822.499C118.205 823.724 117.775 824.901 117.045 825.895C118.553 828.005 119.571 830.417 120.025 832.96C120.48 835.503 120.36 838.114 119.675 840.606C121.711 842.038 123.927 843.201 126.268 844.067C128.009 844.594 129.776 845.033 131.563 845.382C132.79 851.197 131.563 853.759 125.391 853.17C130.721 857.947 135.525 854.486 136.823 860.958C135.35 867.223 133.316 867.535 128.056 866.566C125.286 866.289 124.795 864.558 123.217 863.554C124.164 869.335 125.146 872.969 121.569 873.073C120.496 873.013 119.43 872.874 118.378 872.658C119.415 872.95 120.49 873.09 121.569 873.073C128.582 873.558 132.685 871.031 130.23 883.042C127.671 883.187 125.112 882.736 122.761 881.726C128.197 884.184 126.969 887.957 126.724 890.311C126.163 890.034 126.057 890.034 126.724 890.311C129.51 891.806 131.909 893.914 133.737 896.472C134.263 892.699 135.561 889.722 140.154 891.28C140.4 890.38 137.489 886.434 145.064 886.019C141.767 885.396 138.997 886.019 137.7 882.799C139.348 878.68 143.906 874.181 148.22 874.7C148.084 872.773 148.359 870.839 149.026 869.023C142.013 873.523 139.558 867.431 145.344 862.966C143.731 860.993 140.961 864.039 142.048 858.916C144.467 857.601 144.923 855.213 149.833 858.501C150.244 856.369 150.385 854.195 150.253 852.028C145.765 852.478 142.223 852.582 144.538 847.148C146.863 845.601 149.535 844.639 152.322 844.344C152.533 843.271 154.532 840.675 153.55 838.667C152.778 838.079 150.043 838.39 150.253 836.244C150.709 831.745 151.235 831.433 156.004 831.779C156.004 824.58 153.971 816.653 158.88 811.53C161.51 814.161 163.228 823.368 162.176 832.298C162.702 834.894 163.965 837.525 161.335 840.398C161.262 842.859 161.974 845.28 163.368 847.321C164.28 848.082 166.524 847.321 166.244 849.778C165.998 850.99 166.91 852.444 165.437 853.24C167.085 854.278 169.54 852.374 169.961 856.078C169.561 857.42 168.825 858.641 167.819 859.628C166.814 860.614 165.572 861.334 164.21 861.72C164.21 863.208 162.737 864.558 163.789 866.185C164.876 866.185 166.104 865.735 167.085 866.6C167.296 867.639 170.382 870.062 166.244 873.904C169.996 875.946 172.205 876.673 171.188 883.215C177.43 885.049 178.202 887.092 173.643 891.695C181.778 891.695 183.111 898.895 175.291 901.006C173.957 901.556 172.519 901.819 171.074 901.777C169.629 901.735 168.209 901.39 166.91 900.764C165.157 900.972 163.403 899.552 162.422 899.172C163.001 902.923 163.001 906.739 162.422 910.49C165.122 911.736 167.962 912.948 170.627 914.125C178.131 912.844 178.552 914.99 176.764 919.421C182.62 920.944 185.075 928.143 177.991 929.528C175.999 928.306 174.319 926.648 173.082 924.682C173.608 928.437 173.608 932.245 173.082 936C167.296 945.727 141.802 939.462 131.247 937.212C130.827 936.173 130.546 935.343 130.301 934.547C117.361 943.65 92.674 951.853 76.1576 948.392C76.0348 946.398 76.0348 944.398 76.1576 942.404C61.3244 942.127 44.5976 944.723 31.132 943.615C28.8176 949.327 15.878 937.558 9.4608 938.285C4.55147 938.804 -4.56587 940.812 -12 942.438V862.689C-12 862.689 -12 862.689 -12 862.412V845.105C-11.0852 844.43 -9.94517 844.12 -8.80893 844.24C-9.42033 842.334 -9.28263 840.27 -8.4232 838.46C-4.7412 836.867 -4.636 838.771 -4.70613 844.102C-0.918933 847.84 -7.40627 853.343 -3.584 853.966C0.168134 857.186 -2.2164 865.043 -2.14627 870.304C-0.989067 871.308 0.799333 871.965 1.00973 873.765C3.18825 871.437 6.00078 869.779 9.11013 868.989C-1.40987 864.385 8.4088 856.389 16.1235 858.605C16.0252 857.283 16.1196 855.954 16.404 854.659C16.048 853.392 15.5665 852.163 14.9663 850.99C14.4753 846.178 15.9832 842.025 21.8043 841.125C20.2263 838.287 16.5092 831.779 22.9615 833.545C21.2432 816.515 27.6604 815.13 27.2396 832.679C28.0681 835.079 28.7358 837.531 29.2384 840.017C35.0595 839.429 33.1659 844.517 28.9579 847.355C32.4645 849.64 33.0607 851.059 31.7983 855.213C34.9862 855.338 38.1501 855.814 41.2312 856.632C42.1922 855.93 42.9392 854.981 43.3906 853.888C43.8421 852.795 43.9806 851.601 43.7911 850.436C39.9337 848.359 39.2675 846.975 42.0728 843.513C32.0788 843.513 45.1587 828.456 52.0668 832.783C52.0668 832.783 51.0148 830.602 52.0668 830.256C53.1188 829.91 56.4151 829.183 58.0632 828.56C57.4259 824.088 57.3318 819.556 57.7827 815.061C53.0136 814.646 56.1696 811.807 51.7863 811.392C50.4384 811.765 49.0145 811.779 47.6594 811.432C46.3043 811.086 45.0664 810.391 44.0716 809.419C45.5444 805.473 49.8576 806.546 54.3461 805.473C54.3461 804.642 53.9955 801.112 54.0656 799.277C52.7331 797.512 51.0499 796.093 56.3449 796.75C56.3449 791.143 55.4683 785.674 55.2228 780.136C53.8903 776.986 53.6448 772.417 54.6968 772.694ZM135.35 899.899C135.981 901.214 136.507 902.529 136.963 903.775C138.556 902.685 140.289 901.812 142.118 901.179C138.857 901.075 136.823 901.352 135.35 899.795V899.899Z" fill="url(#paint14_linear)"/>
<path d="M-11.9297 1287.45H1566.07V888.013C1539.28 881.54 1503.69 873.544 1473.14 875.344C1458.63 876.209 1452.1 883.513 1435.38 886.42C1299.95 883.548 1181.84 880.813 1034.74 870.256C1000.23 870.083 914.356 882.267 878.729 892.305C817.327 883.755 780.367 885.071 731.449 887.701L600.475 886.767L572.421 872.229L454.878 892.789C406.205 888.393 376.96 899.712 376.96 899.712C349.502 892.236 338.842 899.227 320.853 899.954L158.214 902.377L-11.9297 923.145V1287.45Z" fill="url(#paint15_linear)"/>
<path d="M152.533 904.177C140.505 904.177 128.442 904.454 116.484 904.765C73.8083 913.176 30.5711 878.909 -11.9297 885.07V968.489C34.218 960.631 81.3827 958.658 126.373 941.456C115.537 939.611 104.814 937.173 94.2522 934.152C126.514 930.968 153.585 927.229 185.636 917.088C208.219 915.08 233.642 914.872 257.242 912.207C224.63 905.631 188.652 904.038 152.533 904.177Z" fill="#64913B"/>
<path d="M457.262 892.582C484.403 885.936 528.447 892.235 556.045 887.701H595.565C633.928 891.785 690.245 899.885 721.489 899.885C793.025 906.808 1009.35 953.224 1074.65 987.63C1038.88 983.753 881.358 950.732 793.13 929.133C765.742 931.776 738.094 929.298 711.635 921.83C642.449 898.05 512.281 898.016 457.262 892.582Z" fill="url(#paint16_linear)"/>
<path d="M379.449 897.531C402.804 891.82 425.562 887.632 444.919 892.581C467.291 890.124 486.999 898.812 506.671 902.342C522.065 912.726 684.705 961.739 699.292 968.108C676.78 970.15 504.778 920.93 484.439 916.915C445.304 900.369 419.145 904.627 379.449 897.496V897.531Z" fill="url(#paint17_linear)"/>
<path d="M353.57 897.462C381.168 895.662 405.364 917.192 422.687 926.71C447.233 938.721 484.018 958.97 491.838 963.262C464.451 953.674 440.325 941.421 415.288 934.014C384.92 925.707 367.737 916.223 353.57 897.462Z" fill="#A7BF34"/>
<path d="M294.272 902.377C300.514 898.051 307.457 900.75 314.05 899.92C327.831 900.716 330.531 912.934 338.596 919.442C356.13 935.502 363.599 953.605 373.172 970.6C363.193 960.1 352.458 950.325 341.051 941.352C322.532 932.229 306.492 918.866 294.272 902.377V902.377Z" fill="#A7BF34"/>
<path d="M588.166 921.83C621.479 924.01 655.389 931.972 686.949 941.317C753.926 960.112 816.415 971.639 874.625 992.51C854.287 991.541 836.052 990.087 815.363 990.087C797.093 993.895 781.699 988.322 765.954 985.207C706.867 957.516 641.362 937.579 588.166 921.83Z" fill="#90B23F"/>
<path d="M430.121 921.83C451.821 924.015 472.819 930.653 491.768 941.317C529.29 960.112 568.915 971.639 598.02 992.51C583.012 991.541 569.967 990.087 553.906 990.087C536.829 993.895 529.184 988.322 519.366 985.207C494.854 957.447 459.297 937.579 430.121 921.83Z" fill="#8CAA45"/>
<path d="M336.282 921.83C351.185 924.01 363.669 931.972 374.329 941.317C397.543 960.112 422.02 971.639 439.974 992.51C430.946 991.19 421.849 990.381 412.727 990.087C402.207 993.895 397.473 988.322 391.371 985.207C376.258 957.447 354.271 937.579 336.282 921.83Z" fill="#8CAA45"/>
<path d="M728.924 899.885C788.958 902.723 850.044 913.211 906.887 925.43C1027.62 950.074 1140.19 965.166 1245.04 992.51C1208.39 991.23 1175.85 989.326 1138.26 989.326C1105.36 994.31 1077.66 987.007 1049.26 982.922C942.795 946.544 824.831 920.618 728.924 899.85V899.885Z" fill="#94B63D"/>
<path d="M620.251 892.582C655.318 885.936 712.337 892.235 748.034 887.701H799.162C848.781 891.785 921.474 899.885 962.081 899.885C1011.98 895.801 1115.29 944.882 1182.79 931.902C1270.07 914.942 1411.22 975.896 1440.11 977.904C1393.86 973.992 1168.87 950.732 1054.73 929.133C1019.41 931.783 983.882 929.323 949.282 921.83C859.827 898.05 691.437 898.016 620.251 892.582V892.582Z" fill="url(#paint18_linear)"/>
<path d="M1215.4 914.526C1221.58 910.373 1282.91 912.9 1289.5 912.069C1299.11 908.608 1336.45 902.343 1338.87 902.343C1368.79 903.208 1414.51 904.108 1442.6 909.646C1473.11 910.719 1533.35 941.144 1558.67 948.655C1538.44 947.201 1502.28 933.391 1482.12 931.591C1472.13 946.959 1440.78 933.321 1383.34 926.71C1269.09 913.038 1247.67 919.095 1215.4 914.526Z" fill="#E2E173"/>
<path d="M274.53 919.372C273.092 944.917 278.036 970.15 281.929 990.088C269.866 998.672 259.276 988.218 252.297 987.63C247.914 958.935 266.324 946.405 274.53 919.372V919.372Z" fill="#8CAA45"/>
<path d="M950.545 965.858C949.9 966.942 949.405 968.106 949.072 969.319C949.563 968.142 950.019 966.931 950.545 965.858ZM949.072 969.319C945.514 976.371 943.507 984.085 943.181 991.956C942.409 985.449 942.339 980.638 938.096 975.757V989.36C931.34 991.402 924.379 992.713 917.337 993.272C913.268 991.905 909.109 990.818 904.888 990.018C900.781 990.367 896.724 991.157 892.79 992.372C890.09 988.91 887.565 985.034 883.112 984.584C880.306 986.557 877.15 988.876 873.959 990.883C869.436 986.799 862.913 990.676 858.425 992.545C856.671 992.268 856.145 989.984 854.918 988.737C850.022 989.893 845.409 991.999 841.347 994.933C840.786 993.652 841.838 991.23 839.664 991.126C833.142 991.818 826.97 995.349 820.342 994.933C820.255 992.467 819.671 990.043 818.624 987.803C817.047 988.164 815.593 988.926 814.406 990.013C813.218 991.099 812.34 992.473 811.856 993.999C810.524 991.195 810.243 989.118 807.788 989.222C806.066 990.611 804.25 991.883 802.353 993.029C801.021 990.732 798.851 989.024 796.286 988.253C794.096 988.213 791.914 988.541 789.834 989.222C792.078 993.445 797.233 995.072 799.302 996.387C801.508 997.332 803.935 997.656 806.316 997.321C808.374 997.479 810.445 997.315 812.452 996.837C814.092 997.953 816.036 998.551 818.028 998.551C820.019 998.551 821.964 997.953 823.603 996.837C829.237 997.464 834.914 997.626 840.576 997.321C851.096 1004.76 858.81 997.979 867.717 994.656C867.045 995.15 866.412 995.694 865.824 996.283C871.504 997.079 882.515 1000.58 891.668 1001.44C896.858 998.221 902.188 998.325 907.798 996.283C912.322 997.979 918.038 998.498 923.017 1000.16C927.927 1000.85 933.537 1001.82 937.78 998.844C941.077 996.283 942.865 994.31 948.3 997.564C949.808 998.048 950.825 999.156 952.473 998.844C962.082 998.844 971.83 1000.68 981.509 998.844C973.022 995.591 963.975 991.645 953.841 993.687C951.88 989.418 951.082 984.717 951.527 980.049C950.405 981.503 949.879 986.453 946.933 985.899C946.641 980.236 947.233 974.563 948.686 969.077L949.072 969.319ZM680.426 976.45C679.802 980.694 679.416 984.97 679.269 989.257C674.36 989.983 670.432 988.945 667.031 995.625C672.232 995.028 677.473 994.831 682.706 995.037C692.174 995.037 699.012 998.152 708.725 997.356C714.933 997.78 721.165 996.992 727.065 995.037C728.397 995.798 729.975 995.799 731.273 997.356C737.52 997.574 743.775 997.389 749.998 996.802C754.627 996.802 757.994 996.802 761.851 993.341C763.818 994.444 765.623 995.806 767.216 997.391C773.002 997.391 778.718 997.391 784.434 996.837C778.612 994.36 773.094 991.236 767.988 987.526C766.02 988.667 763.782 989.276 761.5 989.291C760.957 986.329 760.183 983.413 759.186 980.569C752.173 983.788 746.878 993.687 739.689 995.66C736.603 988.98 733.131 980.569 727.451 980.569C726.36 982.81 724.794 984.794 722.857 986.384C719.35 983.891 716.896 980.811 712.933 982.299C711.636 984.03 710.759 986.834 709.111 987.526C707.287 983.892 705.604 979.599 701.852 978.25C699.739 981.387 698.306 984.923 697.644 988.634C696.715 986.167 695.284 983.914 693.438 982.015C691.593 980.116 689.372 978.61 686.914 977.592C688.504 980.812 689.043 984.44 688.456 987.976C685.141 984.569 682.427 980.638 680.426 976.346V976.45ZM542.193 977.765V991.16C538.862 992.493 535.245 992.981 531.673 992.579C529.78 992.579 528.167 992.268 526.343 992.095C524.132 994.042 521.638 995.652 518.944 996.872C515.898 996.563 512.962 995.581 510.353 993.999C507.8 992.368 505.447 990.451 503.34 988.287C498.57 988.703 495.73 991.333 491.452 993.514C486.798 994.147 482.079 994.147 477.425 993.514C470.412 995.452 463.399 994.587 456.385 995.902C464.851 996.129 473.253 997.42 481.388 999.744C485.35 998.36 489.523 996.525 493.275 995.452C496.84 996.798 500.545 997.75 504.321 998.291C508.872 998.638 513.394 999.285 517.857 1000.23C523.442 998.524 529.232 997.558 535.075 997.356C541.496 997.135 547.925 997.297 554.326 997.841C556.056 998.461 557.713 999.262 559.271 1000.23C559.717 997.809 560.699 995.516 562.146 993.514H562.918C560.323 995.452 562.602 997.633 605.699 998.637C605.699 997.01 606.506 995.175 605.699 993.756C608.084 995.002 610.363 995.902 612.712 996.872C619.149 998.32 625.849 998.165 632.21 996.422C634.581 995.748 637.097 995.748 639.468 996.422C645.103 996.498 650.727 996.949 656.3 997.771C658.177 995.009 660.365 992.466 662.823 990.191C654.407 990.191 646.306 992.406 637.96 992.406C636.944 991.091 635.716 990.572 635.26 988.945C634.208 990.053 632.385 990.503 631.754 992.406C628.439 992.603 625.112 992.452 621.83 991.956C620.497 990.226 618.744 987.941 617.236 986.176C616.324 987.387 613.729 986.834 614.185 990.191C612.783 987.734 611.134 986.418 611.134 983.061C604.928 978.596 606.436 978.319 602.718 983.061C599.79 985.156 596.564 986.812 593.145 987.976C584.344 988.876 575.331 988.98 566.424 990.503C565.633 987.292 565.174 984.01 565.057 980.707C564.529 983.799 563.707 986.836 562.602 989.776C558.079 990.468 556.676 986.488 554.397 983.095C554.782 984.983 555.063 986.889 555.238 988.807C556.08 992.753 553.976 992.683 552.783 994.552C550.925 995.383 549.277 993.826 548.26 993.583C542.93 988.703 542.123 985.241 542.123 977.834L542.193 977.765ZM988.171 980.915C986.418 984.999 984.244 989.776 982.876 993.929C981.684 992.58 980.912 994.137 980.211 990.814C977.09 991.679 973.724 991.818 970.638 992.683C975.35 996.497 981.069 998.899 987.119 999.606C1002.62 1003.07 1022.71 1003.86 1037.12 996.491C1029.13 997.025 1021.1 996.618 1013.21 995.279C1012.04 994.595 1010.96 993.757 1010.02 992.787C1008.72 994.068 1007.14 994.518 1006.27 996.491C1003.82 995.728 1001.46 994.695 999.252 993.41C999.077 992.891 995.57 991.506 997.674 988.46C995.627 990.741 993.839 993.236 992.344 995.902C990.552 991.051 989.122 986.076 988.066 981.019L988.171 980.915Z" fill="url(#paint19_linear)"/>
<path d="M1034.46 993.133C1050.63 994.31 1067.88 991.403 1082.12 989.222C1086.71 988.114 1087.73 990.918 1090.32 991.68C1093.83 992.718 1095.93 990.226 1097.76 989.741C1100.74 988.357 1103.3 991.333 1104.45 991.68C1109.57 987.734 1110.1 982.68 1112.66 978.492C1117.74 980.603 1118.87 985.138 1120.86 988.876C1125.77 988.876 1130.05 988.218 1134.89 987.907C1136.61 988.325 1138.36 988.648 1140.12 988.876C1145.46 987.27 1150.49 984.803 1155.02 981.573C1158.62 983.316 1161.9 985.658 1164.7 988.495C1167.54 987.457 1170.66 986.868 1173.64 986.072C1181.07 985.512 1188.53 985.35 1195.98 985.588C1201.52 985.38 1203.66 982.473 1206.5 980.707C1212.11 981.296 1215.05 984.549 1218.42 986.557C1223.96 986.395 1229.46 985.57 1234.8 984.099C1240.08 984.87 1245.15 986.696 1249.7 989.464H1268.32C1273.47 986.626 1271.3 984.03 1271.3 981.676C1274.81 983.788 1274.81 986.211 1276.53 988.599C1280.08 987.969 1283.41 986.456 1286.2 984.203C1285.94 986.833 1286.19 989.488 1286.94 992.026C1297.67 991.126 1308.82 991.541 1319.69 991.541C1322.73 992.536 1325.72 993.691 1328.63 995.003C1311.8 999.675 1295.43 996.872 1279.54 993.999C1274.1 994.49 1268.63 994.663 1263.17 994.518C1250.96 991.818 1237.08 992.51 1225.19 991.057C1218.49 991.227 1211.78 991.065 1205.09 990.572C1208.08 990.572 1207.72 992.649 1208.81 993.48C1197.91 994.587 1189.98 992.026 1179.78 992.026C1171.68 992.51 1163.58 992.51 1155.23 992.51C1149.04 993.071 1142.82 993.233 1136.61 992.995C1131.03 989.776 1134.15 994.206 1133.63 994.483C1128.17 994.758 1122.69 994.585 1117.25 993.964C1113.95 993.876 1110.66 994.381 1107.54 995.453H1084.47C1065.14 992.857 1047.01 1001.65 1034.57 993.48L1034.46 993.133Z" fill="#BDD645"/>
<path d="M1327.41 992.787C1331.93 991.922 1340.7 989.326 1343.47 988.495C1346.48 988.495 1346.45 990.329 1348.41 991.541C1349.76 988.875 1350.6 985.99 1350.9 983.026C1353.57 984.861 1354.13 987.422 1355.85 989.741C1358.07 987.825 1359.96 985.556 1361.42 983.026C1360.05 985.518 1362.44 988.53 1362.65 989.741C1366.86 990.111 1371.11 989.482 1375.03 987.906H1385.55C1388.81 986.868 1388.56 983.234 1389.9 981.191C1391.44 981.191 1391.97 982.818 1392.98 983.614C1396.1 984.932 1399.52 985.364 1402.87 984.86C1405.4 984.134 1407.85 983.199 1410.3 982.403C1414.72 981.261 1412.41 985.864 1413.39 987.283C1424.54 987.457 1435.34 988.183 1445.55 989.118C1449.05 984.653 1447.83 980.534 1447.41 975.688C1448.25 979.738 1450.04 987.422 1450.49 989.118C1452.32 984.383 1455.04 980.036 1458.52 976.311C1459.22 980.135 1459.44 984.031 1459.15 987.906C1461.09 986.797 1462.95 985.571 1464.73 984.237C1465.45 986.223 1466.49 988.081 1467.81 989.741C1475.18 987.872 1476.72 983.788 1479.56 977.522C1481.42 981.538 1479.56 986.21 1478.93 989.118C1482.02 987.526 1484.68 985.83 1487.59 984.237V988.495C1493.45 987.56 1498.71 986.626 1504.91 986.072C1523.68 993.583 1543.49 991.645 1563.02 993.375C1549.8 999.606 1529.46 997.46 1516.66 993.998H1501.2C1498.3 993.942 1495.4 994.151 1492.54 994.621C1487.15 995.054 1481.73 994.634 1476.48 993.375C1469.81 994.014 1463.09 993.391 1456.66 991.541C1458.7 994.068 1455.65 994.587 1455.44 995.21C1450.21 995.668 1444.94 995.043 1439.97 993.375C1430.33 992.155 1420.61 991.749 1410.9 992.164V996.456C1402.7 997.564 1398.98 993.825 1392.35 990.952C1387.02 991.541 1382.85 992.856 1377.52 993.375C1371.47 993.572 1365.47 994.395 1359.6 995.833C1356.27 997.91 1354.55 994.345 1353.43 993.998C1344.75 994.472 1336.04 994.066 1327.44 992.787H1327.41Z" fill="#94B63D"/>
<path d="M468.238 994.622C464.206 992.13 464.065 990.157 464.065 985.726C462.701 987.817 461.826 990.182 461.505 992.649C457.792 985.485 454.887 977.94 452.844 970.15C453.195 976.346 453.16 982.576 453.16 988.841C451.371 986.141 448.881 983.615 447.093 981.226C447.375 983.963 447.48 986.715 447.409 989.464C445.372 989.442 443.377 988.893 441.623 987.872C442.184 990.087 441.167 991.333 440.676 993.272C438.933 992.628 437.409 991.514 436.274 990.058C435.14 988.602 434.442 986.862 434.259 985.034C433.733 986.972 433.207 988.495 432.646 990.433C430.46 987.372 428.636 984.074 427.21 980.603C426.077 984.482 424.451 988.204 422.371 991.68C420.723 990.122 421.249 988.53 421.109 986.626C420.231 988.841 418.658 990.721 416.62 991.991C415.077 991.991 414.06 990.745 413.113 989.776C411.935 991.734 410.284 993.375 408.309 994.552C404.207 986.211 396.246 982.853 389.373 977.453C391.535 982.925 393.362 988.519 394.844 994.206C392.95 989.291 387.48 986.522 383.938 984.411C386.741 987.202 388.926 990.538 390.355 994.206C388.767 992.881 386.921 991.891 384.932 991.296C382.942 990.7 380.849 990.513 378.783 990.745C380.466 991.264 381.448 992.926 382.29 993.895C375.692 994.9 368.969 994.795 362.407 993.583C362.165 989.293 363.401 985.047 365.914 981.538C360.759 983.13 360.058 988.045 358.234 991.68C356.586 983.684 359.181 978.284 363.038 971.742C356.867 976.138 354.763 984.376 352.518 989.464C351.297 986.166 349.571 983.073 347.399 980.292C347.947 983.988 347.733 987.756 346.767 991.368C343.778 991.732 340.763 991.836 337.755 991.68C339.263 993.687 336.493 993.687 336.177 994.206C331.012 993.595 326.139 991.514 322.151 988.218V993.895C315.979 994.31 309.456 993.41 304.617 996.11C311.631 994.933 317.907 998.637 324.816 998.637C331.829 995.625 340.14 996.075 346.978 994.864C356.172 996.965 365.596 997.919 375.031 997.702C374.786 999.225 375.031 998.948 375.382 999.918C380.229 996.974 385.729 995.24 391.407 994.864C394.942 995.367 398.396 996.321 401.682 997.702C402.39 996.699 403.023 995.647 403.575 994.552C406.225 996.915 409.649 998.254 413.219 998.325C412.517 996.837 414.411 995.764 414.832 994.864C416.48 1000.61 423.002 1001.58 428.613 999.918C428.999 998.81 428.403 997.668 428.297 996.768C433.504 998.286 439.011 998.5 444.323 997.391C452.879 998.325 464.1 999.744 468.869 994.552L468.238 994.622Z" fill="#718D2D"/>
<path d="M308.825 991.991C307.212 986.026 306.985 979.779 308.159 973.715C306.02 978.769 301.847 982.888 300.093 987.561C298.27 986.661 296.201 985.588 295.044 984.895C294.763 987.076 294.588 989.395 294.377 991.541C291.008 991.746 287.644 991.066 284.629 989.568C284.213 986.819 284.096 984.035 284.278 981.261C281.96 984.028 280.209 987.214 279.123 990.641C275.603 986.948 271.521 983.819 267.025 981.365C269.512 985.347 270.801 989.944 270.743 994.622C262.766 990.541 254.572 986.89 246.196 983.684C251.526 985.103 256.26 991.333 257.943 994.31C255.431 994.979 252.819 995.202 250.229 994.968C248.735 992.974 248.013 990.518 248.195 988.045C248.294 990.293 247.949 992.539 247.178 994.656C242.268 987.941 237.64 981.503 229.364 979.08C231.811 980.864 233.832 983.155 235.286 985.792C236.74 988.429 237.591 991.348 237.78 994.345C236.062 993.722 234.659 992.891 233.397 992.337C233.046 991.041 232.939 989.691 233.081 988.357C230.031 990.137 227.486 992.65 225.682 995.66C222.175 992.51 219.23 989.153 215.583 986.384C215.583 989.084 215.933 991.61 215.933 994.345C210.876 994.383 205.819 994.163 200.785 993.687C200.346 995.203 200.346 996.81 200.785 998.325C195.436 996.26 189.73 995.249 183.988 995.349C182.362 996.433 180.676 997.426 178.938 998.325C178.181 994.302 178.644 990.148 180.271 986.384C175.989 988.131 172.19 990.86 169.189 994.345C165.683 994.587 161.124 995.833 158.108 996.318C157.244 994.734 156.046 993.353 154.594 992.266C153.142 991.179 151.47 990.412 149.692 990.018C150.68 993.39 151.129 996.894 151.025 1000.4C156.46 1001.48 161.969 1002.15 167.506 1002.41C169.189 1002.41 169.575 1000.96 171.013 1000.09C173.451 1001.61 175.793 1003.28 178.026 1005.08C181.031 1003.04 184.502 1001.78 188.125 1001.41C194 1002.68 199.795 1004.29 205.483 1006.22C207.639 1005.44 209.516 1004.06 210.884 1002.24C214.39 1002.48 217.231 1003.24 220.632 1003.24C224.945 1003.42 229.231 1002.5 233.081 1000.58C234.798 1002.26 237.052 1003.31 239.463 1003.55L241.462 1000.09C244.674 1000.73 247.829 1001.62 250.895 1002.76C252.788 1002.76 254.401 1000.89 255.944 999.779C261.765 1001.58 268.358 1000.96 274.074 1002.1C274.683 1001.42 275.146 1000.63 275.436 999.777C275.725 998.92 275.834 998.014 275.757 997.114C277.634 997.743 279.356 998.757 280.807 1000.09C283.564 999.291 286.259 998.296 288.872 997.114C291.575 998.256 294.074 999.822 296.271 1001.75C298.232 999.404 299.925 996.85 301.321 994.137C304.444 996.563 308.018 998.362 311.841 999.433C311.385 996.715 310.358 994.121 308.825 991.818V991.991Z" fill="#7C983E"/>
<path d="M154.777 1000.78C152.779 988.391 149.658 987.907 141.417 982.126C142.19 985.929 142.438 989.818 142.153 993.687C138.051 988.668 138.436 982.23 138.436 975.03C131.423 979.045 125.602 988.045 121.359 994.552C118.974 993.272 117.852 989.81 116.169 987.457C113.22 989.212 110.489 991.303 108.034 993.687C98.7059 993.86 90.8159 989.568 82.0492 987.457C78.5425 990.295 81.5583 992.614 81.3128 995.452C70.0915 995.764 60.0624 991.61 50.1385 989.222C49.9632 997.979 46.6319 991.022 44.9487 991.887C43.5665 984.728 44.3469 977.325 47.1929 970.6C43.8348 976.01 40.8588 981.642 38.286 987.457C37.0937 980.776 36.6028 973.611 36.0417 967.035C32.5351 975.48 31.0973 982.541 28.6427 989.222C24.3996 988.322 27.6257 985.76 27.1348 983.891C24.5399 981.122 20.1215 977.142 19.7357 976.796C21.4905 981.389 22.7254 986.16 23.4177 991.022C20.5865 989.756 17.8655 988.263 15.2823 986.557C12.4769 982.161 11.3197 989.706 10.8288 990.018C3.81545 987.699 -3.19788 992.649 -4.77588 993.479C0.694521 1000.16 10.8288 998.81 16.0187 998.81C13.4939 1004 19.1396 1004.76 19.7357 1005.91C24.9607 1005.91 29.4492 1002.65 33.7624 1000.58C36.9184 1006.98 40.7757 1004.94 44.8785 1006.77C47.1929 1006.77 47.8592 1003.93 48.5956 1003.31C52.7695 1001.28 57.3127 1000.11 61.956 999.848C66.164 998.741 70.0564 1000.92 73.0721 1001.61C71.8448 1007.26 75.4917 1006.29 76.7892 1008.74C82.996 1008.74 88.2209 1004.21 93.8667 1001.61C97.7428 1000.69 101.747 1000.39 105.719 1000.75C109.857 1000.19 112.733 1002.65 116.239 1004.21C119.287 1004.12 122.298 1003.52 125.146 1002.44C129.109 1001.82 131.037 1003.62 134.053 1004.21C134.053 1001.99 136.052 1001.23 137.034 999.779C144.257 1002.79 148.956 1001.37 154.848 1000.68L154.777 1000.78Z" fill="#64913B"/>
<path d="M1092.99 946.696C1092.99 893.46 1098.03 833.787 1096.14 779.79C1098.18 774.875 1097.96 771.067 1104.59 773.421C1103.15 772.244 1100.24 769.96 1098.25 768.298C1099.05 762.033 1101.37 762.068 1109.36 762.345C1109.49 759.605 1109.13 756.865 1108.31 754.245C1102.52 752.411 1094 743.861 1105.64 744.9C1101.61 741.646 1099.89 738.427 1106.73 736.385C1104.21 732.923 1101.89 727.87 1109.89 730.431C1107.54 720.982 1112.59 711.498 1114.13 726.589C1114.13 707.102 1120.51 720.463 1119.39 732.958C1120.51 734.585 1123.91 736.212 1120.44 740.642C1121.56 742.857 1125.46 743.238 1120.44 747.876C1121.04 748.845 1126.54 747.011 1123.11 752.134C1123.35 754.314 1125.35 756.91 1123.11 760.233C1123.91 761.579 1124.42 763.071 1124.61 764.619C1124.8 766.166 1124.67 767.736 1124.23 769.233C1124.23 769.233 1131.49 774.182 1130.58 779.028C1131.27 776.515 1132.46 774.163 1134.08 772.106C1130.58 768.471 1129.42 768.16 1135.7 763.591C1132.19 759.783 1131.07 758.295 1136.22 756.357C1133.91 753.899 1131.28 753.934 1135.7 750.403C1134.15 747.669 1129.77 745.003 1137.27 745.28C1136.29 737.527 1141.59 726.347 1142.57 740.607C1143.32 742.075 1143.66 743.713 1143.57 745.355C1143.47 746.997 1142.93 748.583 1142.01 749.953C1143.94 752.03 1147.23 752.722 1142.01 757.637C1145.9 759.991 1147.16 759.541 1146.25 765.287C1146.99 766.498 1149.76 768.298 1149.44 770.41C1149.44 765.702 1148.15 763.729 1153.65 762.31C1152.56 760.375 1151.13 758.642 1149.44 757.187C1151.37 755.249 1148.43 753.484 1153.65 752.93C1152.11 751.58 1151.06 748.984 1148.36 748.257C1149.79 746.734 1149.23 744.45 1154.7 744.796C1154.14 743.861 1152.18 743.03 1152.6 741.334C1153.02 739.638 1146.04 738.15 1155.75 736.246C1155.4 733.235 1153.69 730.846 1158.42 730.708C1154.67 727.662 1152.91 723.093 1159.47 725.17C1156.25 721.259 1153.97 718.455 1161.05 717.936C1161.05 700.802 1168.41 710.078 1166.34 721.397C1167.3 722.668 1167.91 724.166 1168.09 725.74C1168.28 727.314 1168.04 728.909 1167.4 730.362C1167.64 732.335 1169.33 734.412 1166.34 736.731C1167.33 738.531 1169.85 739.258 1167.4 743.134C1175.95 741.057 1181.18 746.838 1168.45 746.111C1172.13 746.388 1173.43 745.453 1175.46 748.638C1172.97 750.23 1169.68 752.099 1168.45 754.626C1173.6 755.872 1177.57 756.184 1173.74 761.549C1173.74 762.518 1175.43 765.46 1173.22 767.537C1177.08 770.652 1178.16 770.998 1172.69 776.052C1176.44 777.402 1180.09 778.544 1181.67 782.005C1182.3 779.478 1181.67 777.298 1184.3 775.082C1180.06 771.621 1177.29 768.575 1184.3 767.848C1179.14 764.733 1178.41 763.625 1184.3 762.31V757.637C1180.13 755.11 1178.16 754.695 1184.86 751.684C1180.69 749.157 1177.32 745.488 1186.96 746.561C1182.37 742.857 1176.13 739.984 1184.86 739.327C1184.58 736.617 1184.75 733.879 1185.39 731.227C1181.6 726.174 1177.36 718.87 1186.96 721.016C1184.68 711.878 1194.5 715.547 1192.26 724.858C1193 725.447 1198.68 724.651 1194.89 732.508C1195.92 733.751 1196.53 735.285 1196.62 736.889C1196.72 738.493 1196.29 740.085 1195.42 741.438C1196.89 742.245 1198.02 743.551 1198.6 745.115C1199.18 746.679 1199.17 748.396 1198.57 749.953C1198.96 751.407 1202.92 751.995 1200.18 755.941C1200.46 758.191 1201.97 760.995 1200.18 762.864C1203.13 765.287 1205.97 764.664 1200.71 770.098C1202.29 771.829 1205.55 773.559 1203.34 778.613C1205.3 780.448 1208.25 780.655 1208.64 785.016C1209.2 780.101 1208.64 775.048 1213.4 771.829C1207.86 770.929 1205.37 766.083 1213.4 765.841C1213.75 764.11 1212.63 762.379 1214.46 760.752C1209.37 758.918 1207.79 757.533 1213.4 755.63C1209.41 752.826 1206.67 751.684 1213.4 749.261C1213.12 746.976 1213.09 745.142 1212.84 742.857C1210.84 739.95 1208 738.773 1213.93 736.904C1211.12 732.889 1209.55 729.704 1216.56 731.816C1216.03 729.635 1214.53 727.627 1216.03 724.893C1214.49 721.778 1211.65 718.42 1217.61 716.378C1218.98 705.371 1226.13 711.428 1222.91 719.355C1223.17 722.629 1222.99 725.922 1222.38 729.15C1225.89 732.023 1228.1 733.096 1224.49 736.8C1225.12 737.908 1227.99 739.188 1226.06 743.203C1234.37 740.227 1231.6 746.319 1225.01 747.876C1229.29 750.161 1232.38 749.607 1226.06 754.245C1229.92 756.599 1231.32 755.699 1228.73 760.233C1229.78 762.172 1232.55 763.175 1229.25 767.156C1233.95 769.06 1236.58 770.825 1233.46 776.536C1232.76 778.509 1233.74 781.728 1231.36 782.49C1231.36 783.805 1233.92 784.843 1231.88 787.612C1234.9 787.855 1235.71 784.151 1239.28 790.174C1238.37 787.716 1236.44 785.778 1239.28 782.49C1236.2 779.028 1234.51 779.444 1239.81 777.402C1241.39 764.698 1247.87 775.082 1243.53 782.074C1244.23 783.943 1246.65 785.536 1245.1 788.997C1245.8 790.478 1246.12 792.105 1246.03 793.735C1245.93 795.365 1245.44 796.947 1244.58 798.343C1245.31 799.208 1247.84 800.662 1248.09 802.6C1250.54 796.058 1248.96 796.231 1252.33 791.524C1250.26 789.343 1247.31 789.205 1251.28 786.436C1251.1 785.432 1251.7 784.359 1250.75 783.459C1248.72 781.278 1246.3 782.144 1248.61 777.505C1248.19 774.044 1247.17 771.24 1252.33 769.406C1248.58 766.394 1247.38 765.944 1252.33 763.002C1252.33 749.884 1261.59 763.556 1256.05 771.102C1258.04 772.313 1260.39 774.84 1259.2 776.64C1260.64 778.717 1264.11 780.448 1259.2 784.29V789.412C1260.72 790.494 1261.85 792.031 1262.42 793.795C1262.99 795.559 1262.97 797.457 1262.36 799.208C1262.36 784.497 1270.11 796.75 1266.6 805.161C1266.6 805.161 1270.53 808.381 1269.23 812.084C1270.32 814.023 1273.72 816.134 1269.23 821.014C1270.63 823.022 1273.82 823.264 1270.32 826.968C1270.32 827.868 1272.67 830.083 1269.76 832.091C1271.76 834.964 1275.51 834.444 1269.23 839.325C1272.74 842.094 1274.98 842.786 1272.95 847.424C1274.17 848.671 1272.95 851.232 1276.63 851.232C1277.17 847.571 1277.17 843.851 1276.63 840.19C1276.21 836.556 1274.07 833.718 1279.82 832.506C1279.01 838.84 1283.15 844.517 1280.35 850.817C1281.19 854.278 1280.73 856.874 1287.36 854.278C1287.75 852.755 1288.48 850.02 1288.94 847.909C1285.96 845.486 1282.56 844.448 1289.46 841.955C1281.68 838.494 1281.4 833.475 1291.57 836.833C1291.77 835.514 1292.14 834.224 1292.65 832.991C1286.06 830.879 1285.29 830.741 1290.52 828.318C1288.97 825.514 1285.61 825.376 1291.57 824.476C1291.57 811.046 1297.67 801.527 1295.28 818.972C1295.25 821.134 1294.89 823.279 1294.23 825.341C1295.04 827.591 1298.93 826.726 1296.34 831.295L1295.81 836.002C1296.86 837.49 1300.51 839.463 1297.91 844.932C1297.21 850.574 1302.19 852.132 1301.63 845.348C1300.54 842.682 1298.13 839.325 1301.11 836.417C1302.04 834.126 1302.41 831.643 1302.16 829.183C1297.77 809.73 1314.61 839.256 1305.31 842.786C1310.89 844.794 1309.35 842.786 1307.98 847.044C1311.49 849.19 1314.08 849.328 1310.08 854.278C1312.75 856.424 1316.15 853.689 1311.66 858.985C1312.89 861.166 1316.75 860.474 1312.19 865.908C1313.98 865.181 1317.24 865.354 1317.48 863.762C1317.73 862.17 1322.22 858.258 1323.83 859.92C1325.58 860.924 1328.91 861.201 1329.12 862.897C1329.72 860.439 1329.69 856.632 1332.63 855.247C1328.35 855.247 1327.3 855.593 1325.23 852.27C1329.15 852.376 1333.02 851.341 1336.35 849.294C1330.07 849.294 1322.6 850.367 1324.71 843.755C1330.95 843.755 1336 842.682 1336.35 835.656C1327.48 842.786 1321.58 837.421 1330.53 833.094C1329.09 830.533 1325.27 828.629 1333.16 829.633C1330.7 825.168 1330.35 823.749 1337.93 824.095C1338.11 822.898 1338.46 821.733 1338.98 820.634C1326.81 820.634 1324.43 814.334 1336.87 813.711C1337.22 812.603 1335.93 811.15 1337.93 810.25C1332.07 806.788 1328.04 804.054 1339.5 804.712C1334.91 802.635 1328.98 798.689 1338.45 797.027C1339.25 795.566 1340.39 794.306 1341.76 793.346C1343.13 792.386 1344.71 791.75 1346.38 791.489C1342.62 788.028 1338.03 784.047 1346.9 783.424C1347.67 781.832 1344.31 779.236 1349.57 777.886C1347.29 774.252 1344.66 771.137 1352.72 770.202C1348.69 759.403 1359.74 760.199 1355.35 769.787C1355.35 769.787 1359.35 773.248 1358.02 775.74C1361.88 778.855 1361.53 778.198 1358.55 782.144C1366.15 782.767 1366.44 785.19 1359.07 786.816C1359.07 787.959 1361.25 789.62 1359.6 791.489C1359.77 792.631 1359.21 793.843 1360.12 794.95C1363.84 797.927 1369.21 801.042 1359.6 803.881C1360.79 804.711 1362.72 804.988 1363.84 806.858C1362.4 807.861 1361.42 810.319 1359.6 809.834V811.98C1362.26 813.573 1368.85 818.903 1359.07 817.518C1358.9 818.626 1359.42 819.838 1358.55 820.98C1361.11 822.641 1363.84 819.595 1363.84 824.441C1367.41 824.452 1370.9 825.5 1373.87 827.453C1374.96 826.449 1373.87 823.68 1377.59 823.991C1366.15 823.091 1365.77 818.488 1378.11 818.038C1369.87 816.722 1363.31 810.803 1374.92 808.657C1375.48 807.688 1372.19 804.296 1380.22 804.85C1380.57 803.846 1380.85 802.877 1381.27 801.873C1370.75 801.077 1371.45 794.951 1380.74 796.75C1380.92 795.747 1380.36 794.674 1381.27 793.774C1376.96 791.143 1375.31 790.589 1382.32 788.236C1379.97 784.774 1378.46 782.732 1382.32 779.721C1382.32 777.609 1379.41 775.775 1384.46 776.259C1385.65 766.498 1389.75 761.202 1388.67 774.113C1388.67 774.875 1389.86 777.402 1389.19 778.786L1389.72 783.044C1394.28 784.151 1398.14 787.37 1388.14 786.886C1388.35 787.37 1395.51 788.339 1389.19 789.447V792.424C1392.35 794.327 1394.21 794.397 1393.44 798.827C1392.21 799.796 1391.4 802.289 1389.72 801.804C1389.54 802.496 1390.49 803.327 1389.19 803.915C1391.68 805.681 1394.35 802.254 1393.96 807.377C1404.48 808.207 1402.03 814.126 1392.38 811.634V815.442C1399.99 812.361 1406.2 815.857 1397.12 820.114C1396.59 822.122 1397.57 824.891 1395.54 826.103C1397.33 827.66 1395.54 828.699 1400.31 830.36C1402.03 831.606 1401.54 833.371 1405.6 834.167C1406.59 826.033 1410.51 829.737 1409.81 838.01C1415.28 832.16 1417.46 834.825 1414.58 840.986C1416.37 840.779 1416.12 838.321 1418.26 840.571C1417.4 842.96 1416.35 845.275 1415.11 847.494C1421.03 844.032 1423.49 844.759 1418.61 850.47V855.559C1425.14 857.151 1426.68 857.843 1420.23 861.547C1420.4 862.377 1419.28 863.347 1420.75 864.073C1427.42 864.073 1427.17 864.662 1423.38 869.612C1427.31 869.3 1427.17 867.05 1428.68 871.758C1427.38 874.008 1426.36 876.915 1424.96 879.407C1425.84 880.342 1428.92 880.169 1428.15 882.869C1428.15 883.042 1431.66 885.361 1430.78 887.991C1430.78 888.822 1433.52 892.456 1429.73 895.641C1430.36 896.437 1434.64 895.641 1432.89 899.483C1432.4 900.556 1434.78 903.671 1430.26 905.021C1431.24 905.921 1432.75 905.99 1433.41 907.998C1431.84 909.438 1430.59 911.182 1429.73 913.121C1430.57 912.948 1432.33 911.425 1434.5 912.255C1434.5 912.428 1434.15 918.59 1429.73 919.94C1434.96 923.401 1375.41 912.636 1374.08 917.967C1370.89 921.947 1367.49 918.347 1366.68 918.382C1367.66 924.474 1359.32 925.305 1358.76 925.616C1358.09 924.128 1354.86 925.062 1352.93 924.751C1351.64 928.939 1314.36 933.196 1345.01 930.739L1092.99 946.696Z" fill="url(#paint20_linear)"/>
<path d="M1084.92 671C1083.73 671 1083.17 675.431 1084.92 682.63C1085.42 684.468 1085.66 686.368 1085.62 688.272C1079.27 686.68 1074.44 687.545 1079.45 691.491C1072.44 692.91 1078.22 695.61 1081.17 697.618C1080.57 699.071 1081.62 700.491 1081.83 701.391C1074.82 701.114 1075.98 704.852 1077.42 708.867C1070.4 709.767 1072.4 712.328 1077.73 713.678C1075.49 717.52 1076.71 718.524 1080.47 720.116C1070.23 718.87 1067 726.555 1078.75 726.555C1079.98 727.628 1080.05 730.812 1080.12 731.366C1075.38 733.062 1077.56 735.069 1080.82 736.973C1081.2 738.465 1081.31 740.011 1081.17 741.542C1072.68 740.711 1068.96 746.63 1079.45 746.63C1069.42 749.607 1069.35 755.007 1080.82 754.107C1081.24 756.461 1079.94 757.187 1079.1 758.676C1068.93 751.234 1060.02 765.079 1077.06 763.764C1078.33 765.702 1077.52 766.775 1077.06 768.575C1070.3 769.267 1064.06 772.556 1069.21 776.606C1065.11 782.109 1072.3 782.109 1076.71 781.417C1076.43 784.463 1077.42 784.324 1081.17 784.878C1075.7 786.713 1077.98 789.066 1081.17 791.558C1082.01 796.612 1082.25 801.943 1082.89 806.823C1080.29 808.623 1070.51 814.646 1079.8 815.373C1074.33 817.311 1075.7 818.661 1076.71 820.461H1069.88C1070.3 815.996 1070.26 814.473 1065.77 812.707C1069.95 810.042 1076.29 806.581 1068.51 804.158C1072.02 801.562 1068.96 799.52 1066.47 798.239C1069.7 795.781 1068.93 794.12 1067.84 791.316C1068.33 789.586 1070.79 789.136 1072.96 788.132C1070.02 784.821 1066.05 782.558 1061.67 781.694C1062.86 777.194 1066.09 773.248 1061.36 770.444C1065.56 767.191 1064.86 767.225 1061.36 764.56C1061.95 763.8 1062.29 762.882 1062.35 761.925C1062.41 760.969 1062.17 760.017 1061.67 759.195C1065.53 756.287 1063.77 755.734 1061.67 754.107C1064.23 750.092 1064.65 747.911 1060.3 746.907C1062.93 742.823 1062.62 739.5 1058.94 736.973C1059.81 732.612 1058.94 730.05 1054.52 733.512C1051.01 720.739 1046.94 733.512 1048.35 738.842C1042.31 735.381 1043.93 740.504 1045.29 742.857C1040 742.857 1042.42 745.523 1044.24 747.426C1043.26 749.053 1045.15 749.538 1045.61 750.645C1035.09 749.538 1034.49 755.457 1045.29 755.457C1042.87 755.457 1044.38 757.084 1043.93 757.88C1037.44 755.561 1031.58 758.607 1039.12 761.895C1029.69 759.991 1041.02 768.61 1043.23 769.925C1043.47 770.998 1042.56 771.69 1042.21 772.59C1039.47 767.918 1037.44 769.96 1037.44 774.183C1033.06 769.787 1024.64 768.817 1029.23 774.183C1030.67 776.086 1033.51 776.502 1035.72 777.644C1036.04 778.786 1035.51 778.89 1035.37 779.79C1028.85 775.221 1015.66 781.278 1027.87 782.732C1028.22 784.041 1028.32 785.401 1028.18 786.747C1015.45 786.09 1020.4 788.859 1028.18 791.282C1014.93 792.943 1023.83 797.858 1031.93 799.589C1032.88 800.696 1031.93 801.804 1031.93 802.808C1028.43 801.908 1022.4 797.858 1022.4 803.327C1020.16 802.686 1017.79 802.686 1015.56 803.327C1014.51 790.416 1011.1 777.298 1011.1 764.249C1004.37 772.487 1010.47 790.001 1011.81 801.458C1008.72 804.712 1010.02 805.231 1012.82 808.173C1010.86 811.427 1012.05 813.607 1014.54 816.203C1014.91 818.771 1015.02 821.368 1014.86 823.957H1012.02C1010.96 827.418 1014.09 828.076 1016.82 829.045C1015.94 831.826 1015.82 834.787 1016.47 837.629C1020.54 842.198 1012.44 846.04 1009.63 840.571C1010.58 840.07 1011.33 839.268 1011.76 838.296C1012.2 837.323 1012.29 836.235 1012.02 835.206C1011.7 833.198 1009.98 833.614 1009.28 833.06C1009.91 831.952 1009.28 831.225 1009.28 830.118C1010.72 826.933 1009.77 825.86 1007.95 823.957C1009.88 820.772 1008.44 819.388 1006.23 818.072C1007.74 812.465 1007.04 812.534 1005.53 806.027C1006.14 804.975 1006.34 803.738 1006.09 802.551C1005.83 801.364 1005.15 800.31 1004.16 799.589C1006.55 792.112 1000.37 790.416 1001.43 798.793C996.131 797.789 997.569 802.254 1000.06 805.231C995.851 808.381 1002.13 812.811 1001.43 818.349C997.464 814.888 990.906 813.746 994.588 819.422C988.311 820.53 989.539 824.337 993.922 826.622C993.747 829.91 994.273 833.025 994.273 836.279C987.855 829.979 981.228 835.483 989.118 838.944C988.311 839.325 988.907 839.844 988.802 840.294C979.124 838.494 985.296 844.032 990.17 845.382C980.071 845.971 982.105 849.917 989.819 852.305C975.793 851.544 973.969 860.093 989.469 857.635V860.335C985.962 863.139 983.788 863.451 978.212 863.001C972.251 864.904 978.212 868.054 981.263 869.716C963.73 869.439 979.124 874.388 986.383 876.915C982.876 875.911 959.486 885.222 976.494 886.572C975.864 887.503 975.447 888.558 975.271 889.664C975.096 890.769 975.166 891.899 975.477 892.976C973.899 891.791 972.18 890.803 970.357 890.034C970.006 886.918 969.235 887.126 965.553 886.815C967.376 883.353 966.535 881.969 963.835 880.411C964.992 871.135 958.364 871.239 959.416 880.134C954.612 881.069 954.542 884.253 956.33 887.368C949.703 888.614 944.864 893.218 953.595 895.952C950.334 900.729 944.969 904.052 952.228 907.444C948.721 910.49 950.299 912.948 955.98 913.328C945.46 915.094 946.442 921.532 955.313 925.374C944.022 925.824 951.807 933.439 954.612 936.104C960.363 933.993 965.132 931.777 969.305 933.404C971.731 931.165 974.582 929.423 977.694 928.276C980.805 927.13 984.116 926.602 987.435 926.724C987.784 927.938 987.891 929.208 987.75 930.462C992.94 930.462 996.727 928.593 1002.13 928.593C1000.44 925.132 1003.71 924.024 1005.63 923.228C1005.32 919.49 1003.81 917.967 999.498 917.62C1001.49 916.943 1003.65 916.943 1005.63 917.62C1009.14 915.855 1014.4 915.855 1008.72 919.213C1011.03 919.94 1014.05 920.251 1014.19 922.432C1015.17 918.624 1020.61 917.62 1021.69 921.913C1025.97 916.859 1031.48 919.94 1026.5 925.132C1032.09 924.884 1037.61 923.798 1042.87 921.913C1047.33 919.559 1052.1 919.49 1052.8 924.059C1056.49 921.665 1060.71 920.192 1065.11 919.767C1067.63 916.928 1072.12 914.921 1075.63 919.49L1087.23 916.271C1087.23 908.448 1096.98 915.336 1101.58 917.897C1105.08 916.548 1108.38 914.955 1112.1 917.067C1112.48 915.994 1112.8 914.817 1113.46 913.328C1115.12 912.657 1116.94 912.488 1118.69 912.844C1119.04 914.332 1120.34 915.544 1123.07 915.855C1130.33 916.686 1134.5 911.702 1140.61 910.248C1143.62 916.478 1151.97 911.563 1152.56 910.767C1160.8 912.048 1160.21 903.844 1152.21 903.533C1152.19 902.461 1152.31 901.391 1152.56 900.348C1161.51 899.656 1161.65 894.568 1153.23 896.333C1153.02 895.606 1152.6 893.91 1152.21 892.872C1159.68 890.276 1162.24 885.257 1150.18 888.857C1150.35 887.541 1151.16 886.607 1149.16 885.395C1146.43 885.395 1143.73 885.188 1141.62 885.119V877.33C1151.27 879.615 1159.72 874.527 1143.34 874.388V872.519C1153.3 869.058 1158.17 868.469 1141.97 867.431C1141.97 866.912 1141.24 865.424 1141.62 864.489C1147.02 861.339 1156.14 869.439 1161.44 865.285C1163.64 863.589 1158.14 860.508 1156.67 860.197C1152.79 859.082 1148.74 858.637 1144.71 858.882C1159.93 857.67 1156.25 851.959 1142.99 855.143C1142.99 854.59 1142.99 854.07 1142.99 853.517C1147.69 851.474 1150.42 846.905 1142.32 848.151C1142.32 847.182 1143.27 846.005 1142.32 844.967C1142.18 843.701 1142.29 842.42 1142.64 841.194C1149.65 841.748 1150.49 838.598 1143.69 837.733C1147.2 836.625 1150.71 832.402 1142.99 834.271C1143.24 833.268 1142.67 832.229 1143.69 831.329C1143.55 830.075 1143.66 828.805 1144.01 827.591C1148.18 825.791 1148.11 822.849 1142.32 823.576C1145.55 810.907 1138.33 810.492 1139.59 824.372C1134.15 822.468 1135.35 825.48 1139.24 828.387C1132.68 828.387 1131.28 830.949 1137.87 832.402C1137.88 833.131 1138 833.854 1138.22 834.548C1132.89 833.718 1126.47 836.279 1135.14 836.971C1134.83 838.027 1134.61 839.103 1134.47 840.19C1132.58 841.644 1130.16 842.648 1135.14 843.652C1134.43 844.863 1133.35 845.798 1133.42 847.667C1132.65 847.753 1131.88 847.904 1131.14 848.117C1130.26 847.165 1129.04 846.578 1127.74 846.475C1126.44 846.372 1125.15 846.761 1124.12 847.563C1121.78 846.34 1119.24 845.521 1116.62 845.14C1117.5 842.821 1117.18 842.025 1120.13 841.679C1128.51 849.19 1134.71 834.756 1123.18 838.702C1122.65 834.375 1120.3 834.548 1115.32 835.517C1115.32 834.168 1114.87 832.437 1114.66 830.949C1115.67 830.326 1117.01 830.256 1117.71 829.079C1122.44 837.248 1130.44 833.129 1123.53 827.21C1131.03 822.814 1117.11 818.072 1111.57 818.384C1108.65 816.486 1105.41 815.126 1102 814.369C1098.7 801.458 1116.02 819.699 1120.79 812.742C1117.5 811.697 1114.71 809.507 1112.94 806.581C1118.97 806.581 1118.76 802.289 1113.64 800.696C1115.43 797.235 1116.62 790.312 1108.17 794.293C1108.17 786.851 1100.31 791.87 1099.96 785.19C1103.47 785.19 1104.52 785.709 1105.75 783.321C1107.22 785.363 1108.91 794.674 1114.31 788.651C1118.13 787.578 1119.81 786.816 1117.81 783.321C1121.7 781.036 1120.65 776.052 1114.76 779.271C1113.53 778.025 1112.45 775.498 1108.94 775.809C1107.03 774.31 1105.51 772.389 1104.49 770.202C1110.52 772.071 1116.34 764.906 1108.27 764.041C1106.59 760.753 1104.94 759.818 1102.1 762.137C1100.76 761.071 1099.71 759.691 1099.05 758.122C1102.03 756.841 1103.51 756.53 1102.1 753.588C1108.2 750.126 1104.28 748.569 1099.72 745.834C1100.81 742.719 1100.14 741.784 1094.91 742.857C1094.97 740.983 1094.86 739.107 1094.6 737.25C1106.07 739.95 1106.31 731.089 1095.97 730.535C1100.42 730.154 1101.89 727.628 1095.97 726.001C1095.72 724.166 1095.97 723.232 1094.25 721.743C1106.14 718.94 1095.93 715.79 1089.48 714.509C1092.99 713.228 1094.42 712.571 1092.99 708.625C1093.23 708.209 1095.23 706.41 1094.7 704.333C1109.12 704.333 1097.23 698.864 1089.58 703.537C1089.83 701.46 1089.83 699.418 1090.25 697.375C1097.68 696.822 1095.47 693.36 1089.23 694.433C1089.44 693.499 1090.6 692.806 1089.9 691.491C1098.28 690.383 1101.02 684.188 1090.95 687.718C1092.39 684.88 1094.25 679.896 1088.22 680.796C1087.34 674.081 1086.04 671.138 1085.13 671.035L1084.92 671ZM868.524 753.864C866.875 753.553 865.017 756.322 865.894 759.991C861.44 762.622 865.894 761.895 865.894 765.356C864.982 766.983 863.439 766.741 865.894 769.094C865.894 769.371 869.4 768.368 866.56 770.444C859.932 770.029 859.546 775.013 865.543 775.809C861.58 777.194 861.65 779.271 866.56 780.898C865.671 781.887 864.873 782.953 864.175 784.082C859.371 785.363 857.372 788.374 863.825 788.132C863.825 788.513 864.035 791.316 864.842 792.147C862.831 792.49 860.882 793.119 859.056 794.016C855.549 792.805 848.536 792.805 855.549 797.2C853.305 799.866 853.27 800.662 859.652 800.42C857.889 802.517 857.033 805.215 857.267 807.931C850.254 807.931 851.762 812.05 856.566 813.296C848.255 815.234 844.222 820.218 856.566 818.626C850.85 820.426 849.237 823.784 856.916 824.268C853.971 824.476 852.814 823.957 851.13 826.656C846.747 829.322 848.08 831.71 854.883 832.298C853.024 834.375 851.902 836.175 850.078 838.183C841.207 833.545 835.175 844.552 849.412 844.344C843.311 847.805 846.396 851.613 853.866 849.432C850.71 853.863 854.462 858.12 860.002 852.893C860.132 854.15 860.013 855.42 859.652 856.632C855.206 858.011 850.87 859.712 846.677 861.72C838.331 865.181 840.155 873.004 851.797 871.1C847.413 873.177 838.857 872.692 841.277 876.984C839.558 883.907 848.851 875.081 853.936 876.984C852.919 884.911 841.207 884.184 844.012 890.83C836.753 893.08 838.577 893.703 837.875 899.379C836.227 900.348 833.913 900.591 836.157 903.914C833.702 907.756 837.595 910.594 845.38 908.483C835.21 913.536 846.116 916.305 851.201 911.425C849.167 913.536 848.36 915.232 846.396 917.586C840.716 918.036 841.101 921.047 841.277 925.097C835.035 926.066 835.596 929.839 834.789 934.72C832.103 936.56 829.735 938.816 827.776 941.4C816.52 948.011 828.688 950.815 838.296 947.042C843.591 947.388 847.484 947.284 850.955 944.342C853.69 944.458 856.429 944.284 859.126 943.823C860.037 948.115 862.632 947.976 867.331 945.692C871.82 945.692 874.169 945.138 872.451 941.4H877.956C882.129 941.4 890.791 941.781 885.461 936.589C886.6 936.269 887.791 936.175 888.967 936.312C893.666 938.354 896.366 939.773 901.942 937.385C906.798 938.27 911.759 938.457 916.67 937.939C916.354 936.416 916.144 933.404 913.163 932.297C913.163 925.824 910.323 925.789 903.59 924.543C903.59 924.197 902.819 921.428 900.855 920.528C901.371 918.425 901.711 916.283 901.872 914.125C908.219 910.663 906.36 906.544 898.365 904.19C905.379 902.183 901.521 899.518 896.331 896.991C896.331 895.399 898.891 894.049 893.246 893.53C892.965 892.526 891.913 891.453 892.229 890.068C897.173 887.922 894.824 885.395 889.809 884.184C897.418 884.184 893.877 879.996 890.16 878.023C895.35 876.811 895.595 873.973 889.493 871.619C898.05 870.927 891.387 866.531 890.16 862.516C892.194 860.37 892.755 859.747 890.16 855.593C900.013 855.593 891.773 849.917 890.16 847.563C890.086 846.46 889.643 845.413 888.9 844.586C888.157 843.759 887.157 843.199 886.057 842.994C890.896 841.852 891.948 840.19 886.758 837.387C892.72 835.518 890.966 831.052 884.023 832.541C883.621 831.232 883.621 829.835 884.023 828.526C892.404 825.618 885.356 822.468 880.516 819.699C886.513 819.215 888.512 815.58 879.499 815.407C883.532 811.946 895.911 809.004 879.85 809.281C879.85 807.031 879.605 805.819 882.235 804.192C885.145 801.908 885.741 799.831 881.568 798.031C881.077 794.258 876.729 791.732 876.764 787.301C881.288 783.84 874.625 785.224 874.029 779.028C874.289 778.147 874.184 777.2 873.737 776.395C873.29 775.59 872.537 774.993 871.644 774.736C879.184 774.736 872.661 770.998 870.943 768.021C874.134 765.529 874.099 766.048 871.294 764.56C871.294 763.833 869.54 763.591 870.943 762.414C872.17 760.268 873.889 760.303 869.926 758.122C869.926 755.318 869.085 754.038 868.138 753.864H868.524ZM1108.84 849.155C1111.64 850.547 1114.28 852.254 1116.69 854.243C1123.95 855.386 1122.83 857.428 1125.91 860.681C1126.51 860.741 1127.11 860.741 1127.7 860.681C1125.7 862.101 1124.97 863.554 1126.65 867.12C1118.44 866.462 1115.46 870.581 1125.28 871.654C1123.25 873.281 1120.41 875.115 1124.26 877.296C1122.96 877.223 1121.67 877.46 1120.48 877.988C1119.16 877.524 1117.77 877.335 1116.37 877.434C1114.69 873.073 1112.24 874.527 1108.17 877.434C1107.22 876.223 1102.14 870.512 1103.01 866.739C1105.96 869.023 1108.63 874.492 1113.29 870.754C1119 870.754 1121.99 865.943 1117.71 862.447C1120.72 860.058 1119.67 855.524 1114.97 858.985C1111.47 858.397 1109.54 858.639 1108.17 855.247C1108.41 853.343 1108.41 851.301 1108.84 849.363V849.155ZM1129.42 851.924L1130.75 852.236C1130.47 853.413 1127.91 853.759 1131.45 855.143C1131.45 855.628 1130.47 857.255 1131.45 858.12L1129.91 859.02C1130.65 857.532 1129.91 855.213 1127.98 852.893C1128.49 852.615 1128.97 852.291 1129.42 851.924V851.924ZM1120.72 881.588C1121.66 882.423 1122.78 883.03 1124 883.361C1125.22 883.691 1126.5 883.736 1127.74 883.492C1126.54 883.872 1125.39 884.288 1124.23 884.599C1123.91 884.599 1123.04 884.945 1122.27 885.292C1121.42 884.772 1119.81 885.084 1117.36 887.161C1116.97 885.603 1118.06 884.322 1116.34 882.903C1117.95 882.808 1119.52 882.359 1120.93 881.588H1120.72ZM1125.39 893.46C1125.95 894.083 1126.16 895.226 1127.46 895.849C1126.73 897.049 1125.94 898.205 1125.07 899.31C1124.24 899.364 1123.4 899.468 1122.58 899.622C1122.02 898.35 1121.34 897.133 1120.55 895.987C1121.78 895.537 1122.9 894.815 1123.81 893.876V893.876C1124.34 893.774 1124.87 893.635 1125.39 893.46V893.46ZM1120.72 904.225C1122.91 905.405 1125.28 906.213 1127.74 906.613C1126.49 906.398 1125.22 906.316 1123.95 906.371C1122.84 905.5 1121.55 904.895 1120.16 904.606L1120.72 904.225Z" fill="url(#paint21_linear)"/>
<path d="M1141.34 907.306C1106.49 905.333 1142.08 872.173 1108.13 879.303C1027.73 884.807 878.728 935.169 811.154 960.437C839.664 965.283 880.656 977.744 900.82 984.424C982.981 961.095 1056.66 914.436 1141.34 907.306Z" fill="#94B63D"/>
<path d="M962.256 972.448C991.326 953.826 1020.26 942.058 1050.83 927.866C1096.25 881.449 1129.63 858.639 1201.9 915.855C1236.06 929.701 1280.31 913.328 1337.86 909.521C1368.92 907.479 1391.23 914.851 1440.99 937.212C1502.95 1008.07 1487.73 973.037 1482.15 973.625C1448.63 977.086 1328.18 954.207 1277.54 985.774C1196.89 954.622 1109.82 953.549 1102.56 956.734C1053.81 971.825 1004.83 991.866 962.291 972.448H962.256Z" fill="#C0C93B"/>
<path d="M1108.48 881.207C1182.82 877.157 1226.17 905.056 1256.18 917.586C1284.24 913.501 1289.6 912.082 1328.11 901.456C1357.39 904.917 1419.07 920.805 1464.87 950.849C1438.43 931.535 1336.17 907.929 1302.02 925.339C1292.51 930.185 1316.57 959.953 1314.64 967.429C1289.88 955.384 1206.11 949.361 1179.25 946.661C1208.88 910.352 1147.13 880.376 1108.41 881.138L1108.48 881.207Z" fill="#E1D972"/>
</g>
<defs>
<linearGradient id="paint0_linear" x1="1094.16" y1="126.866" x2="1099.72" y2="271.968" gradientUnits="userSpaceOnUse">
<stop stop-color="white"/>
<stop offset="1" stop-color="#E1BFBF"/>
</linearGradient>
<radialGradient id="paint1_radial" cx="0" cy="0" r="1" gradientUnits="userSpaceOnUse" gradientTransform="translate(1093.42 66.8802) rotate(126.949) scale(45.5466 183.854)">
<stop stop-color="#EFF5F9"/>
<stop offset="1" stop-color="#C7DBEB"/>
</radialGradient>
<radialGradient id="paint2_radial" cx="0" cy="0" r="1" gradientUnits="userSpaceOnUse" gradientTransform="translate(171792 53238.4) rotate(11.6003) scale(28901.4 1040.32)">
<stop stop-color="#EFF5F9"/>
<stop offset="1" stop-color="#C7DBEB"/>
</radialGradient>
<linearGradient id="paint3_linear" x1="1100.62" y1="283.619" x2="1100.62" y2="102.561" gradientUnits="userSpaceOnUse">
<stop stop-color="#E2BFBF"/>
<stop offset="0.38" stop-color="#739EC5"/>
<stop offset="1" stop-color="#D2E0EB"/>
</linearGradient>
<radialGradient id="paint4_radial" cx="0" cy="0" r="1" gradientUnits="userSpaceOnUse" gradientTransform="translate(1424.81 80.0684) rotate(-105.012) scale(46.53 133.071)">
<stop stop-color="#B7CFE7"/>
<stop offset="1" stop-color="#E1ECF4"/>
</radialGradient>
<linearGradient id="paint5_linear" x1="1040.84" y1="219.25" x2="1040.84" y2="194.016" gradientUnits="userSpaceOnUse">
<stop stop-color="#80A7CA"/>
<stop offset="1" stop-color="#ABC6DA"/>
</linearGradient>
<linearGradient id="paint6_linear" x1="1182.06" y1="219.288" x2="1182.66" y2="164.986" gradientUnits="userSpaceOnUse">
<stop stop-color="#80A7CA"/>
<stop offset="1" stop-color="#AEC7DD"/>
</linearGradient>
<linearGradient id="paint7_linear" x1="1135.58" y1="172.253" x2="1135.27" y2="182.622" gradientUnits="userSpaceOnUse">
<stop stop-color="#D3E1F0"/>
<stop offset="1" stop-color="#9BBAD5"/>
</linearGradient>
<linearGradient id="paint8_linear" x1="274.901" y1="123.384" x2="265.873" y2="174.583" gradientUnits="userSpaceOnUse">
<stop stop-color="white"/>
<stop offset="1" stop-color="#B4C8DA"/>
</linearGradient>
<linearGradient id="paint9_linear" x1="270.668" y1="175.689" x2="273.015" y2="145.401" gradientUnits="userSpaceOnUse">
<stop stop-color="#8FB7DB"/>
<stop offset="1" stop-color="#DCE6EE"/>
</linearGradient>
<linearGradient id="paint10_linear" x1="130.915" y1="115.183" x2="163.827" y2="145.862" gradientUnits="userSpaceOnUse">
<stop stop-color="#D9E3EC"/>
<stop offset="1" stop-color="#B4C8DA"/>
</linearGradient>
<linearGradient id="paint11_linear" x1="207.085" y1="143.389" x2="178.215" y2="178.213" gradientUnits="userSpaceOnUse">
<stop stop-color="#EEF2F6"/>
<stop offset="1" stop-color="#D1DDE8"/>
</linearGradient>
<linearGradient id="paint12_linear" x1="298.043" y1="147.043" x2="267.731" y2="118.029" gradientUnits="userSpaceOnUse">
<stop stop-color="#C5D4E5"/>
<stop offset="1" stop-color="#D5E0EA"/>
</linearGradient>
<linearGradient id="paint13_linear" x1="262.963" y1="118.022" x2="194.28" y2="100.748" gradientUnits="userSpaceOnUse">
<stop stop-color="#D5E0EA"/>
<stop offset="1" stop-color="white"/>
</linearGradient>
<linearGradient id="paint14_linear" x1="63.5336" y1="870.235" x2="154.687" y2="842.761" gradientUnits="userSpaceOnUse">
<stop stop-color="#2F4B70"/>
<stop offset="1" stop-color="#694B59"/>
</linearGradient>
<linearGradient id="paint15_linear" x1="513.404" y1="1113.17" x2="1204.78" y2="1070.62" gradientUnits="userSpaceOnUse">
<stop stop-color="#93B248"/>
<stop offset="1" stop-color="#C5CB3A"/>
</linearGradient>
<linearGradient id="paint16_linear" x1="707.322" y1="920.099" x2="1017.88" y2="1007.51" gradientUnits="userSpaceOnUse">
<stop stop-color="#B1CA3B"/>
<stop offset="1" stop-color="#CEE273"/>
</linearGradient>
<linearGradient id="paint17_linear" x1="486.578" y1="913.488" x2="727.994" y2="990.891" gradientUnits="userSpaceOnUse">
<stop stop-color="#A7BF34"/>
<stop offset="1" stop-color="#B9D242"/>
</linearGradient>
<linearGradient id="paint18_linear" x1="769.495" y1="895.904" x2="1139" y2="933.126" gradientUnits="userSpaceOnUse">
<stop stop-color="#B1CA3B"/>
<stop offset="1" stop-color="#E2D973"/>
</linearGradient>
<linearGradient id="paint19_linear" x1="957.247" y1="987.81" x2="490.966" y2="984.175" gradientUnits="userSpaceOnUse">
<stop stop-color="#86A63B"/>
<stop offset="1" stop-color="#718D2D"/>
</linearGradient>
<linearGradient id="paint20_linear" x1="1413.45" y1="782.585" x2="1109.15" y2="899.228" gradientUnits="userSpaceOnUse">
<stop stop-color="#494A86"/>
<stop offset="1" stop-color="#244A53"/>
</linearGradient>
<linearGradient id="paint21_linear" x1="1094.83" y1="800.326" x2="818.381" y2="845.294" gradientUnits="userSpaceOnUse">
<stop stop-color="#2E5E69"/>
<stop offset="1" stop-color="#5182A9"/>
</linearGradient>
<clipPath id="clip0">
<rect width="1440" height="1024" fill="white"/>
</clipPath>
</defs>
</svg>
